<svg width="165" height="127" viewBox="0 0 165 127" fill="none" xmlns="http://www.w3.org/2000/svg">
<path d="M97.8609 120.396L97.3463 119.367C95.7167 114.908 97.9466 110.02 102.406 108.391C102.492 108.391 102.578 108.305 102.75 108.305L142.459 94.8422V58.3976C142.459 53.8528 139.629 49.8224 135.426 48.1932C125.306 44.3343 107.124 37.4741 102.235 35.8448C96.7459 34.0441 97.4321 27.7842 98.0324 25.2974C93.5726 27.8699 90.7423 32.5005 90.3992 37.5599V108.82C90.3992 112.078 91.6 115.165 93.8299 117.566C94.8591 118.853 96.3171 119.796 97.8609 120.396Z" fill="#9FDBF5"/>
<path opacity="0.53" d="M142.37 94.8413V121C142.37 127.004 137.481 131.892 131.478 131.892C130.191 131.892 128.991 131.635 127.79 131.206L97.8576 120.4L97.343 119.37C95.7135 114.91 97.9434 110.022 102.403 108.392C102.489 108.392 102.575 108.307 102.746 108.307L142.37 94.8413Z" fill="#9FDBF5"/>
<path d="M90.226 47.3354V106.933C90.1402 96.4713 90.226 63.7998 90.226 47.3354Z" fill="#9FDBF5"/>
<path opacity="0.78" d="M177.794 8.40313V76.919C177.794 80.5206 175.564 83.6934 172.134 84.8082L142.373 94.8411V58.3965C142.373 53.8517 139.543 49.8214 135.34 48.1921C125.22 44.3332 107.037 37.4731 102.149 35.8438C96.6596 34.043 97.3458 27.7831 97.9461 25.2963C98.2892 25.1248 98.5465 24.9533 98.8896 24.7818L166.645 0.513931C171.019 -1.0296 175.736 1.19997 177.28 5.57332C177.623 6.43084 177.794 7.45985 177.794 8.40313Z" fill="#9FDBF5"/>
<path d="M80.0207 11.4912L80.5352 12.5202C82.1648 16.9793 79.9349 21.8672 75.4751 23.4965C75.3893 23.4965 75.3035 23.5822 75.132 23.5822L35.4224 37.0453V73.4899C35.4224 78.0348 43.2975 81.3707 47.5 83C57.7061 86.8588 70.758 94.4134 75.6466 96.0427C81.1356 97.8435 80.4495 104.103 79.8491 106.59C84.309 104.018 87.1392 99.4727 87.4823 94.3276V22.9819C87.4823 19.7234 86.1958 16.6363 84.0517 14.2352C82.9367 13.0347 81.5645 12.0057 80.0207 11.4912Z" fill="#9FDBF5"/>
<path opacity="0.53" d="M35.4224 37.0509V10.8923C35.4224 4.88867 40.3111 0 46.3147 0C47.6012 0 48.8019 0.257287 50.0026 0.686116L80.0207 11.4926L80.5352 12.5218C82.1648 16.9816 79.9349 21.8703 75.4751 23.4999C75.3893 23.4999 75.3035 23.5856 75.132 23.5856L35.4224 37.0509Z" fill="#9FDBF5"/>
<path opacity="0.78" d="M0 123.483V54.9671C0 51.3655 2.31568 48.1927 5.66055 47.0779L35.4213 37.0449V73.4895C35.4213 78.0344 38.2516 82.0647 42.4541 83.694C52.6602 87.5528 70.7568 94.413 75.6455 96.0423C81.1345 97.8431 80.4484 104.103 79.848 106.59C79.505 106.761 79.2476 106.933 78.9046 107.104L11.1496 131.372C6.86127 132.916 2.05839 130.686 0.5146 126.399C0.171537 125.455 0 124.512 0 123.483Z" fill="#9FDBF5"/>
</svg>
