<svg width="48" height="48" viewBox="0 0 48 48" fill="none" xmlns="http://www.w3.org/2000/svg">
<g clip-path="url(#clip0_3940_11061)">
<path d="M42.0823 29.0791L25.6663 42.1579L16.5234 46.7292L23.024 41.5499L32.9394 33.6505C33.5017 33.2162 33.6114 32.4574 33.264 31.3785C32.912 30.2996 32.304 29.5088 31.44 29.0105L23.7097 24.5442L32.8526 19.9728L40.5829 24.4391C41.4469 24.9373 42.0548 25.7282 42.4069 26.8071C42.7543 27.8859 42.6446 28.6448 42.0823 29.0791Z" fill="#FDFDFD" stroke="#325310" stroke-linecap="round" stroke-linejoin="round"/>
<path d="M25.6663 42.158C25.5246 42.2677 25.3737 42.3454 25.2091 42.3865L25.6663 42.158Z" stroke="#325310" stroke-linecap="round" stroke-linejoin="round"/>
<g filter="url(#filter0_d_3940_11061)">
<path d="M32.9394 33.6505L23.024 41.5499L16.5234 46.7291C16.1577 47.0172 15.7097 47.0812 15.1794 46.9257C14.6446 46.7703 14.1326 46.4183 13.6297 45.8606C13.1314 45.3076 12.7429 44.6722 12.4594 43.9545C12.176 43.2368 12.0662 42.5739 12.1348 41.9659L13.7302 30.2356L7.54513 26.6653C6.74513 26.2036 6.15542 25.4493 5.77599 24.4116C5.39199 23.3693 5.43312 22.6013 5.8994 22.1076L20.816 6.10305C20.8982 6.01619 20.9851 5.94762 21.0811 5.88819L21.1131 5.8699L21.2502 5.8059C21.4971 5.69619 21.7851 5.6779 22.1143 5.73733C22.6446 5.83333 23.1931 6.1579 23.76 6.71562C24.0068 6.9579 24.2217 7.2139 24.4091 7.48819C24.656 7.84019 24.8571 8.22419 25.008 8.63562C25.2731 9.36248 25.3737 10.0299 25.3051 10.6425L23.7097 24.5442L31.44 29.0105C32.304 29.5088 32.912 30.2996 33.264 31.3785C33.6114 32.4573 33.5017 33.2162 32.9394 33.6505Z" fill="#AFE274"/>
<path d="M32.9394 33.6505L23.024 41.5499L16.5234 46.7291C16.1577 47.0172 15.7097 47.0812 15.1794 46.9257C14.6446 46.7703 14.1326 46.4183 13.6297 45.8606C13.1314 45.3076 12.7429 44.6722 12.4594 43.9545C12.176 43.2368 12.0662 42.5739 12.1348 41.9659L13.7302 30.2356L7.54513 26.6653C6.74513 26.2036 6.15542 25.4493 5.77599 24.4116C5.39199 23.3693 5.43312 22.6013 5.8994 22.1076L20.816 6.10305C20.8982 6.01619 20.9851 5.94762 21.0811 5.88819L21.1131 5.8699L21.2502 5.8059C21.4971 5.69619 21.7851 5.6779 22.1143 5.73733C22.6446 5.83333 23.1931 6.1579 23.76 6.71562C24.0068 6.9579 24.2217 7.2139 24.4091 7.48819C24.656 7.84019 24.8571 8.22419 25.008 8.63562C25.2731 9.36248 25.3737 10.0299 25.3051 10.6425L23.7097 24.5442L31.44 29.0105C32.304 29.5088 32.912 30.2996 33.264 31.3785C33.6114 32.4573 33.5017 33.2162 32.9394 33.6505Z" stroke="#325310" stroke-linecap="round" stroke-linejoin="round"/>
</g>
<path d="M34.448 6.0711L32.8525 19.9728L23.7097 24.5442L25.3051 10.6425C25.3737 10.03 25.2731 9.36253 25.008 8.63567C24.8571 8.22424 24.656 7.84024 24.4091 7.48824C24.2217 7.21395 24.0068 6.95795 23.76 6.71567C23.1931 6.15795 22.6445 5.83338 22.1142 5.73738C21.7851 5.67795 21.4971 5.69624 21.2502 5.80595L30.2742 1.2894C30.5531 1.13397 30.8777 1.09283 31.2571 1.16597C31.7874 1.26197 32.336 1.58654 32.9028 2.14425C33.4651 2.6974 33.8811 3.3374 34.1508 4.06425C34.416 4.7911 34.5165 5.45853 34.448 6.0711Z" fill="#FDFDFD" stroke="#325310" stroke-linecap="round" stroke-linejoin="round"/>
<path d="M30.3245 1.26184L30.2742 1.28927" stroke="#325310" stroke-linecap="round" stroke-linejoin="round"/>
</g>
<defs>
<filter id="filter0_d_3940_11061" x="1.01616" y="5.20398" width="36.9451" height="50.3038" filterUnits="userSpaceOnUse" color-interpolation-filters="sRGB">
<feFlood flood-opacity="0" result="BackgroundImageFix"/>
<feColorMatrix in="SourceAlpha" type="matrix" values="0 0 0 0 0 0 0 0 0 0 0 0 0 0 0 0 0 0 127 0" result="hardAlpha"/>
<feOffset dy="4"/>
<feGaussianBlur stdDeviation="2"/>
<feComposite in2="hardAlpha" operator="out"/>
<feColorMatrix type="matrix" values="0 0 0 0 0 0 0 0 0 0 0 0 0 0 0 0 0 0 0.25 0"/>
<feBlend mode="normal" in2="BackgroundImageFix" result="effect1_dropShadow_3940_11061"/>
<feBlend mode="normal" in="SourceGraphic" in2="effect1_dropShadow_3940_11061" result="shape"/>
</filter>
<clipPath id="clip0_3940_11061">
<rect width="48" height="48" fill="white"/>
</clipPath>
</defs>
</svg>
