<svg width="48" height="48" viewBox="0 0 48 48" fill="none" xmlns="http://www.w3.org/2000/svg">
<path d="M32.4147 26.4218C32.4657 26.494 32.5336 26.5577 32.6101 26.6129C32.7375 26.7064 32.8735 26.7573 33.0264 26.7701L32.4147 26.4218Z" stroke="#325310" stroke-width="0.7" stroke-linecap="round" stroke-linejoin="round"/>
<path d="M44.3297 33.3882C44.3297 33.9021 44.181 34.4289 43.8836 34.9768C43.5566 35.5375 43.1701 35.9453 42.724 36.2044C42.278 36.4593 41.8915 36.4975 41.5686 36.3106L37.9495 34.2505V36.5358C37.9495 37.0625 37.7966 37.5977 37.4823 38.1329C37.1722 38.6724 36.7856 39.0717 36.3269 39.3393C35.8639 39.6027 35.4816 39.6493 35.1672 39.4709C34.8571 39.2925 34.7 38.94 34.7 38.4132V32.5386C34.7 32.1818 34.7509 31.8207 34.8529 31.4554C34.9676 31.0263 35.1545 30.5889 35.4136 30.1471C35.5325 29.9389 35.6642 29.7393 35.8001 29.5609C36.1867 29.0342 36.637 28.6221 37.1382 28.3332L42.2568 25.3768C42.6688 25.1389 43.0256 25.0794 43.3187 25.1984L43.4164 25.2451C43.7265 25.4235 43.8836 25.7761 43.8836 26.3028C43.8836 26.8295 43.7265 27.3647 43.4164 27.9042C43.1021 28.4394 42.7155 28.843 42.2568 29.1064L40.2263 30.2788L43.8836 32.3644C44.181 32.5343 44.3297 32.8742 44.3297 33.3882Z" fill="#AFE274" stroke="#325310" stroke-width="0.7" stroke-linecap="round" stroke-linejoin="round"/>
<path d="M23.9742 42.5505C22.4874 42.8521 21.1451 42.7799 19.9558 42.334C19.2889 42.0834 18.6814 41.7266 18.142 41.2551C17.7172 40.8983 17.3307 40.465 16.9866 39.968L17.8319 39.4795L19.7222 40.4268L23.9742 42.5505Z" stroke="#325310" stroke-width="0.7" stroke-linecap="round" stroke-linejoin="round"/>
<path d="M23.9743 42.5506L19.7223 40.4268L17.832 39.4795L21.7824 37.1985C21.9014 37.6912 22.0331 38.1712 22.186 38.6385C22.3389 39.1227 22.5088 39.5985 22.6957 40.053C23.061 40.9451 23.4901 41.7776 23.9743 42.5506Z" stroke="#325310" stroke-width="0.7" stroke-linecap="round" stroke-linejoin="round"/>
<path d="M32.4149 26.4217C32.4659 26.4939 32.5338 26.5577 32.6103 26.6129C32.7377 26.7064 32.8737 26.7573 33.0266 26.7701L32.4149 26.4217ZM26.8376 14.4812C26.8291 14.5067 26.8206 14.528 26.8121 14.5535L26.8461 14.5704C26.8461 14.5407 26.8418 14.5109 26.8376 14.4812Z" stroke="#325310" stroke-width="0.7" stroke-linecap="round" stroke-linejoin="round"/>
<path d="M29.2631 29.5864C28.97 29.4675 28.6131 29.5226 28.2011 29.7648L26.2047 30.916L24.3824 31.9694C24.3016 31.3959 24.2422 30.8097 24.1997 30.2108C24.1572 29.6118 24.1402 29.0002 24.1402 28.38C24.1402 27.9382 24.1487 27.4922 24.17 27.0377L26.2131 28.0614L29.2631 29.5864Z" stroke="#325310" stroke-width="0.7" stroke-linecap="round" stroke-linejoin="round"/>
<path d="M43.1701 10.1188C42.3163 8.34319 41.1609 7.03912 39.6997 6.20655L39.037 5.87523C37.7245 5.28054 36.225 5.05965 34.5386 5.19558C34.4706 5.19983 34.4027 5.20832 34.3347 5.21682C32.8862 5.36549 31.3613 5.81576 29.7641 6.56762C29.2501 6.80974 28.7276 7.0816 28.2009 7.38744C27.3428 7.88443 26.5018 8.44089 25.682 9.06107C24.6073 9.86815 23.5666 10.7772 22.5599 11.7924C22.3262 12.026 22.0926 12.2681 21.8632 12.5145C21.5064 12.8968 21.1581 13.2876 20.8225 13.6827C19.2763 15.4795 17.9043 17.4122 16.7064 19.4809C16.6682 19.5489 16.6299 19.6168 16.5917 19.6848C16.5407 19.7655 16.494 19.8504 16.4516 19.9354C16.2179 20.3389 16.0013 20.7467 15.7889 21.1587C14.7482 23.1679 13.8986 25.2494 13.2317 27.4073C13.0066 28.1464 12.8069 28.877 12.6413 29.5991H12.637C12.3184 30.9839 12.1146 32.3432 12.0169 33.6813C11.9744 34.2632 11.9531 34.8451 11.9531 35.4186C11.9531 36.4423 12.0211 37.4023 12.1528 38.2986C12.3567 39.6621 12.7178 40.877 13.2317 41.9517C13.3379 42.1768 13.4526 42.3893 13.5715 42.6015C14.3828 44.05 15.4236 45.1374 16.7064 45.8638C18.1677 46.7006 19.888 47.0362 21.8632 46.8705C23.8427 46.7091 25.9538 45.9785 28.2009 44.6829C28.4728 44.5257 28.7701 44.3431 29.093 44.1434C29.4201 43.9395 29.7174 43.7441 29.9893 43.5572C30.448 43.2259 30.8006 42.8054 31.047 42.2915C31.2891 41.7817 31.4122 41.2423 31.4122 40.6858C31.4122 40.1294 31.2636 39.8151 30.962 39.6621L30.8898 39.6282C30.6052 39.522 30.2484 39.6197 29.8278 39.9212C29.556 40.1081 29.2841 40.2738 29.0123 40.414C28.7447 40.5542 28.4728 40.7028 28.2009 40.86C27.4958 40.1464 26.8884 39.3266 26.3744 38.3963C26.1365 37.9715 25.9241 37.5212 25.7244 37.0455C25.4951 36.4848 25.2912 35.8986 25.1128 35.2742L26.2554 34.6158L28.2009 33.4943C28.6597 33.2267 29.0463 32.8274 29.3606 32.288C29.3946 32.2327 29.4243 32.1733 29.454 32.1181C29.7004 31.6381 29.8278 31.1623 29.8278 30.6908C29.8278 30.4954 29.8066 30.3255 29.7598 30.1769C29.6919 29.9262 29.556 29.7435 29.3606 29.6331L29.2628 29.5864C28.9697 29.4674 28.6129 29.5227 28.2009 29.7648L26.2044 30.9159L24.3822 31.9694C24.3015 31.3959 24.242 30.8097 24.1995 30.2108C24.157 29.6119 24.1401 29.0001 24.1401 28.38C24.1401 27.9382 24.1486 27.4922 24.1698 27.0377C24.1783 26.855 24.1868 26.6681 24.1995 26.4812C24.242 25.8356 24.3015 25.1772 24.3822 24.5103L26.2512 23.4313L32.0197 20.1011C32.1004 20.6745 32.1641 21.2607 32.2023 21.8596C32.2023 21.9149 32.2108 21.9701 32.2108 22.0253C32.2491 22.569 32.2618 23.1255 32.2618 23.6904V24.574C32.2618 24.8543 32.2491 25.1559 32.2236 25.483C32.2151 25.5807 32.2108 25.6699 32.2108 25.7549C32.2193 26.031 32.283 26.2519 32.4147 26.4218L33.0264 26.7701C33.2388 26.7871 33.4724 26.7233 33.7273 26.5747C34.1861 26.307 34.5811 25.9248 34.9039 25.4278C35.231 24.9308 35.4179 24.3998 35.4731 23.8391C35.4986 23.5163 35.5156 23.1722 35.5156 22.8154V21.8129C35.5156 21.6388 35.5156 21.4646 35.5071 21.2904C35.5071 20.8487 35.4816 20.4112 35.4519 19.9822C35.4179 19.43 35.3584 18.882 35.2862 18.3467C35.2862 18.3043 35.2735 18.2618 35.2693 18.2235L40.7956 15.0335C40.9316 15.5772 41.0335 16.1421 41.1014 16.7241C41.1651 17.306 41.1992 17.9092 41.1992 18.5294V19.3704C41.1992 19.6168 41.1737 19.9141 41.1185 20.2539C41.0675 20.7849 41.1864 21.18 41.4838 21.4434C41.7854 21.7067 42.1506 21.711 42.5839 21.4604C43.0682 21.18 43.476 20.7977 43.8031 20.3135C44.1259 19.8335 44.317 19.311 44.368 18.7503C44.3977 18.4232 44.419 18.0706 44.4317 17.6883C44.4445 17.3103 44.453 16.962 44.453 16.6519C44.453 14.0735 44.0239 11.8943 43.1701 10.1188ZM15.6062 37.037C15.4703 36.4933 15.3726 35.9283 15.3047 35.3464C15.2367 34.7644 15.2027 34.1612 15.2027 33.5411C15.2027 32.9209 15.2367 32.2794 15.3047 31.6168C15.3259 31.4044 15.3514 31.1878 15.3811 30.9712C15.4406 30.5166 15.5128 30.0494 15.6062 29.5779L21.1326 26.3878C21.0731 26.8678 21.0264 27.3435 20.9882 27.8108C20.9755 27.9977 20.9627 28.1761 20.9499 28.3588C20.9074 29.0002 20.8905 29.6331 20.8905 30.2575C20.8905 30.882 20.9074 31.4894 20.9499 32.0841C20.9882 32.683 21.0519 33.2692 21.1326 33.8469L18.6094 35.3039L15.6062 37.037ZM19.956 42.334C19.2891 42.0834 18.6816 41.7266 18.1422 41.2551C17.7174 40.8982 17.3309 40.465 16.9868 39.968L17.8321 39.4795L21.7825 37.1984C21.9015 37.6912 22.0332 38.1712 22.1861 38.6384C22.339 39.1227 22.5089 39.5985 22.6958 40.053C23.0611 40.945 23.4901 41.7775 23.9743 42.5505C22.4876 42.8521 21.1454 42.7799 19.956 42.334ZM23.4562 15.8915C23.1801 16.7241 22.9252 17.5524 22.6958 18.3765C22.3305 19.689 22.0247 20.9931 21.7825 22.2802L16.9868 25.0497C17.5432 23.6012 18.2059 22.2122 18.9705 20.8742C19.2806 20.3262 19.6077 19.791 19.956 19.26C20.487 18.4487 21.0476 17.6756 21.6423 16.9407C22.3729 16.0317 23.1503 15.1821 23.9743 14.3963C23.7917 14.8975 23.6218 15.3945 23.4562 15.8915ZM26.9946 19.2727L25.1128 20.3601C25.4399 18.8352 25.8604 17.3103 26.3744 15.7853C26.5146 15.3733 26.659 14.9655 26.8119 14.5535C26.8204 14.528 26.8289 14.5067 26.8374 14.4812C26.9224 14.2476 27.0116 14.014 27.1008 13.7846C27.4406 12.9266 27.8059 12.0685 28.2009 11.2104C28.6002 11.614 28.9655 12.0473 29.2969 12.5188C29.5602 12.8841 29.8023 13.2664 30.0274 13.6742C30.5457 14.6044 30.962 15.6451 31.2891 16.792L26.9946 19.2727ZM35.9022 14.1329L34.6193 14.872C34.3772 13.8611 34.0714 12.9096 33.7061 12.0176C33.3408 11.1255 32.9117 10.2929 32.4275 9.51558C32.933 9.41363 33.4257 9.35417 33.9014 9.34567C34.5513 9.32018 35.1716 9.37961 35.7535 9.52403C35.9914 9.57925 36.2208 9.65147 36.4459 9.73642C37.6395 10.1824 38.6293 10.9726 39.4151 12.1025L35.9022 14.1329Z" fill="#AFE274" stroke="#325310" stroke-width="0.7" stroke-linecap="round" stroke-linejoin="round"/>
<path d="M35.8512 10.3227L33.9014 9.3457C34.5513 9.32022 35.1715 9.37964 35.7535 9.52407C35.9913 9.57929 36.2207 9.6515 36.4459 9.73646C37.6395 10.1825 38.6292 10.9726 39.4151 12.1025L35.8512 10.3227Z" stroke="#325310" stroke-width="0.7" stroke-linecap="round" stroke-linejoin="round"/>
<path d="M21.7823 22.2802L16.9866 25.0498C17.5431 23.6013 18.2057 22.2123 18.9703 20.8743L21.7823 22.2802Z" stroke="#325310" stroke-width="0.7" stroke-linecap="round" stroke-linejoin="round"/>
<path d="M23.9746 14.3965C23.7919 14.8977 23.622 15.3947 23.4564 15.8917C23.1803 16.7243 22.9254 17.5526 22.696 18.3767C22.3307 19.6892 22.0249 20.9933 21.7827 22.2803L18.9707 20.8744C19.2808 20.3264 19.6079 19.7912 19.9562 19.2602C20.4872 18.4489 21.0478 17.6758 21.6425 16.9409C22.3731 16.0319 23.1505 15.1823 23.9746 14.3965Z" stroke="#325310" stroke-width="0.7" stroke-linecap="round" stroke-linejoin="round"/>
<path d="M39.4152 12.1026L35.9022 14.1331L34.6194 14.8722C34.3773 13.8612 34.0715 12.9097 33.7061 12.0177C33.3408 11.1256 32.9118 10.2931 32.4275 9.51574C32.933 9.41379 33.4258 9.35432 33.9015 9.34583L35.8512 10.3186L39.4152 12.1026Z" stroke="#325310" stroke-width="0.7" stroke-linecap="round" stroke-linejoin="round"/>
<path d="M32.6102 26.613L28.1797 24.3998L26.2513 23.4314L32.0197 20.1011C32.1005 20.6745 32.1642 21.2607 32.2024 21.8597C32.2024 21.9149 32.2109 21.9701 32.2109 22.0253C32.2491 22.569 32.2619 23.1255 32.2619 23.6905V24.574C32.2619 24.8543 32.2491 25.1559 32.2236 25.483C32.2151 25.5807 32.2109 25.6699 32.2109 25.7549C32.2194 26.031 32.2831 26.2519 32.4148 26.4218C32.4658 26.494 32.5337 26.5578 32.6102 26.613Z" stroke="#325310" stroke-width="0.7" stroke-linecap="round" stroke-linejoin="round"/>
<path d="M31.2891 16.7922L26.8459 14.5705C26.8459 14.5408 26.8417 14.5111 26.8374 14.4814C26.9224 14.2477 27.0116 14.0141 27.1008 13.7847C27.4406 12.9266 27.8059 12.0686 28.2009 11.2106C28.6002 11.6141 28.9655 12.0474 29.2969 12.5189C29.5602 12.8842 29.8023 13.2665 30.0274 13.6742C30.5457 14.6045 30.962 15.6453 31.2891 16.7922Z" stroke="#325310" stroke-width="0.7" stroke-linecap="round" stroke-linejoin="round"/>
<path d="M39.037 5.87519C37.7245 5.2805 36.225 5.05961 34.5386 5.19554C34.4706 5.19979 34.4027 5.20828 34.3347 5.21678C32.8862 5.36545 31.3613 5.81572 29.7641 6.56758C29.2501 6.8097 28.7276 7.08156 28.2009 7.3874C27.3428 7.88439 26.5018 8.44085 25.682 9.06103C24.6073 9.86811 23.5666 10.7771 22.5599 11.7924C22.3262 12.026 22.0926 12.2681 21.8632 12.5145C21.5064 12.8968 21.1581 13.2876 20.8225 13.6826C19.2763 15.4794 17.9043 17.4122 16.7064 19.4809C16.6682 19.5488 16.6299 19.6168 16.5917 19.6847C16.5407 19.7655 16.494 19.8504 16.4516 19.9353C16.2179 20.3389 16.0013 20.7466 15.7889 21.1587C14.7482 23.1679 13.8986 25.2493 13.2317 27.4072C13.0066 28.1463 12.8069 28.8769 12.6412 29.599H12.637C12.3184 30.9838 12.1146 32.3432 12.0169 33.6812C11.9744 34.2632 11.9531 34.8451 11.9531 35.4185C11.9531 36.4423 12.0211 37.4023 12.1528 38.2985C12.3567 39.6621 12.7177 40.877 13.2317 41.9516C13.3379 42.1768 13.4526 42.3892 13.5715 42.6015C14.3828 44.05 15.4236 45.1374 16.7064 45.8638L8.21085 41.6161C6.74534 40.7835 5.58994 39.4794 4.73614 37.7039C3.88233 35.924 3.45755 33.7492 3.45755 31.1708C3.45755 28.5924 3.88233 25.9205 4.73614 23.1594C5.58994 20.3984 6.74534 17.7562 8.21085 15.2331C9.67209 12.7099 11.3924 10.3863 13.3677 8.26669C15.3471 6.14704 17.4582 4.43943 19.7053 3.13962C21.9524 1.84405 24.0678 1.11341 26.043 0.947748C28.0182 0.786332 29.7386 1.12191 31.2041 1.95873L39.037 5.87519Z" stroke="#325310" stroke-width="0.8" stroke-linecap="round" stroke-linejoin="round"/>
<path d="M20.95 32.084C20.9883 32.6829 21.052 33.2691 21.1327 33.8468L16.8255 31.6932L15.3812 30.9711C15.4407 30.5165 15.5129 30.0493 15.6064 29.5778L21.1327 26.3877C21.0732 26.8677 21.0266 27.3434 20.9883 27.8107C20.9756 27.9976 20.9628 28.176 20.95 28.3587C20.9076 29.0001 20.8906 29.633 20.8906 30.2574C20.8906 30.8819 20.9076 31.4893 20.95 32.084Z" stroke="#325310" stroke-width="0.7" stroke-linecap="round" stroke-linejoin="round"/>
<path d="M21.1327 33.8468L18.6096 35.3038L15.6064 37.0369C15.4705 36.4932 15.3727 35.9282 15.3048 35.3463C15.2368 34.7643 15.2028 34.1612 15.2028 33.541C15.2028 32.9208 15.2368 32.2793 15.3048 31.6167C15.326 31.4043 15.3515 31.1877 15.3812 30.9711L16.8255 31.6932L21.1327 33.8468Z" stroke="#325310" stroke-width="0.7" stroke-linecap="round" stroke-linejoin="round"/>
<path d="M31.2892 16.7921L26.9947 19.2728L25.113 20.3602C25.44 18.8352 25.8606 17.3103 26.3746 15.7854C26.5147 15.3733 26.6592 14.9655 26.8121 14.5535L26.8461 14.5704L31.2892 16.7921Z" stroke="#325310" stroke-width="0.7" stroke-linecap="round" stroke-linejoin="round"/>
<path d="M35.2861 18.3467C35.2861 18.3042 35.2733 18.2618 35.2691 18.2235L40.7954 15.0334C40.9314 15.5772 41.0333 16.1421 41.1013 16.7241C41.165 17.306 41.199 17.9092 41.199 18.5294V19.3704C41.199 19.6168 41.1735 19.9141 41.1183 20.2539C41.0673 20.7849 41.1862 21.18 41.4836 21.4434L35.2861 18.3467Z" stroke="#325310" stroke-width="0.7" stroke-linecap="round" stroke-linejoin="round"/>
<path d="M43.3189 25.1983C43.0258 25.0794 42.669 25.1389 42.257 25.3768L37.1384 28.3332C36.6372 28.622 36.1869 29.0341 35.8004 29.5608C35.6644 29.7393 35.5328 29.9389 35.4138 30.147C35.1547 30.5888 34.9678 31.0263 34.8531 31.4553C34.7512 31.8206 34.7001 32.1817 34.7001 32.5385V38.4132C34.7001 38.9399 34.8574 39.2925 35.1674 39.4709L26.7696 35.2699L26.6719 35.2231C26.4595 35.0999 26.3193 34.9003 26.2555 34.6157L28.2011 33.4943C28.6598 33.2267 29.0464 32.8274 29.3607 32.2879C29.3947 32.2327 29.4244 32.1732 29.4542 32.118C29.7005 31.638 29.828 31.1623 29.828 30.6908C29.828 30.4954 29.8067 30.3254 29.76 30.1768C29.692 29.9262 29.5561 29.7435 29.3607 29.6331L29.263 29.5863L26.2131 28.0613C26.2513 27.3562 26.4892 26.6341 26.9182 25.8993C27.2793 25.2748 27.6998 24.7735 28.1798 24.3997L32.6103 26.6129C32.7377 26.7063 32.8736 26.7573 33.0265 26.7701C33.2389 26.787 33.4726 26.7233 33.7274 26.5746C34.1862 26.307 34.5812 25.9247 34.9041 25.4277C35.2312 24.9308 35.418 24.3998 35.4732 23.8391C35.4987 23.5162 35.5158 23.1722 35.5158 22.8154V21.8129C35.5158 21.6387 35.5158 21.4646 35.5073 21.2904L43.3189 25.1983Z" stroke="#325310" stroke-width="0.7" stroke-linecap="round" stroke-linejoin="round"/>
<path d="M41.5688 36.3107L37.9496 34.5011V34.2505L41.5688 36.3107Z" stroke="#325310" stroke-width="0.7" stroke-linecap="round" stroke-linejoin="round"/>
<path d="M31.0768 39.5385C30.7922 39.4323 30.4354 39.53 30.0149 39.8316C29.743 40.0185 29.4712 40.1842 29.1993 40.3243C28.9317 40.4645 28.6598 40.6132 28.388 40.7703C27.6828 40.0567 27.0754 39.2369 26.5614 38.3066C26.3235 37.8819 26.1111 37.4316 25.9115 36.9558L31.0768 39.5385Z" stroke="#325310" stroke-width="0.7" stroke-linecap="round" stroke-linejoin="round"/>
</svg>
