<svg width="159" height="131" viewBox="0 0 159 131" fill="none" xmlns="http://www.w3.org/2000/svg">
<path d="M97.0225 119.365L96.5123 118.345C94.8967 113.924 97.1075 109.078 101.529 107.463C101.614 107.463 101.699 107.377 101.869 107.377L141.239 94.0297V57.8973C141.239 53.3914 138.433 49.3956 134.266 47.7802C124.232 43.9545 106.206 37.153 101.359 35.5377C95.9171 33.7523 96.5973 27.5461 97.1926 25.0806C92.7709 27.6311 89.9649 32.222 89.6248 37.2381V107.888C89.6248 111.118 90.8152 114.179 93.026 116.559C94.0464 117.835 95.4919 118.77 97.0225 119.365Z" fill="#F4DC57"/>
<path opacity="0.53" d="M141.151 94.0288V119.963C141.151 125.916 136.304 130.762 130.352 130.762C129.076 130.762 127.886 130.507 126.695 130.082L97.0194 119.368L96.5092 118.348C94.8936 113.926 97.1044 109.079 101.526 107.464C101.611 107.464 101.696 107.379 101.866 107.379L141.151 94.0288Z" fill="#F4DC57"/>
<path d="M89.4532 46.9302V106.017C89.3681 95.6452 89.4532 63.2535 89.4532 46.9302Z" fill="#F4DC57"/>
<path opacity="0.78" d="M176.271 8.33136V76.2603C176.271 79.8311 174.06 82.9767 170.659 84.082L141.153 94.029V57.8965C141.153 53.3906 138.347 49.3948 134.181 47.7795C124.147 43.9537 106.12 37.1523 101.274 35.537C95.8317 33.7516 96.5119 27.5453 97.1071 25.0798C97.4473 24.9098 97.7024 24.7398 98.0425 24.5697L165.217 0.509746C169.554 -1.02057 174.23 1.18991 175.761 5.5258C176.101 6.37597 176.271 7.39617 176.271 8.33136Z" fill="#F4DC57"/>
<path d="M79.3352 11.3926L79.8454 12.4127C81.461 16.8337 79.2502 21.6797 74.8285 23.295C74.7435 23.295 74.6585 23.38 74.4884 23.38L35.119 36.7278V72.8602C35.119 77.3661 37.925 81.3619 42.0915 82.9772C52.2102 86.803 70.1518 93.6044 74.9986 95.2198C80.4406 97.0051 79.7603 103.211 79.1651 105.677C83.5868 103.126 86.3928 98.6205 86.7329 93.5194V22.7849C86.7329 19.5542 85.4574 16.4936 83.3316 14.1131C82.2262 12.9229 80.8658 11.9027 79.3352 11.3926Z" fill="#F4DC57"/>
<path opacity="0.78" d="M0 122.425V54.4962C0 50.9254 2.29585 47.7798 5.61206 46.6746L35.1179 36.7275V72.86C35.1179 77.3659 37.9239 81.3617 42.0904 82.977C52.2091 86.8028 70.1507 93.6042 74.9975 95.2195C80.4395 97.0049 79.7593 103.211 79.164 105.677C78.8239 105.847 78.5688 106.017 78.2287 106.187L11.0541 130.247C6.8025 131.777 2.04075 129.567 0.510192 125.316C0.170068 124.381 0 123.445 0 122.425Z" fill="#F4DC57"/>
<path opacity="0.53" d="M35.119 36.7335V10.799C35.119 4.84679 39.9657 0 45.9179 0C47.1934 0 48.3838 0.255083 49.5743 0.680239L79.3352 11.3942L79.8454 12.4145C81.461 16.8362 79.2501 21.683 74.8285 23.2986C74.7435 23.2986 74.6585 23.3836 74.4884 23.3836L35.119 36.7335Z" fill="#F4DC57"/>
</svg>
