<svg width="333" height="57" viewBox="0 0 333 57" fill="none" xmlns="http://www.w3.org/2000/svg">
<rect y="0.25" width="158.09" height="56" rx="28" fill="black"/>
<path d="M40.4989 16.25C39.0767 16.4204 37.7728 17.1262 36.8526 18.224C36.0576 19.1913 35.4036 20.6283 35.6586 22.025C36.3738 22.0088 37.0761 21.8314 37.7131 21.506C38.3502 21.1806 38.9056 20.7156 39.3379 20.1457C39.7792 19.6053 40.1091 18.9827 40.3083 18.3141C40.5076 17.6454 40.5724 16.9439 40.4989 16.25Z" fill="#FDFDFD"/>
<path d="M45.5552 24.3015C44.3269 22.7612 42.6002 21.8672 40.9695 21.8672C38.8172 21.8672 37.9065 22.8958 36.4112 22.8958C34.8684 22.8958 33.6979 21.8672 31.8362 21.8672C30.0079 21.8672 28.0609 22.9845 26.8262 24.8955C25.0909 27.5865 25.3879 32.6458 28.2002 36.9555C29.2065 38.4983 30.5505 40.2315 32.3085 40.2465C33.8728 40.2615 34.3138 39.2432 36.4335 39.2325C38.5532 39.2218 38.9548 40.261 40.5165 40.2435C42.2758 40.2302 43.6935 38.3085 44.6998 36.7665C45.3077 35.848 45.8265 34.8736 46.2491 33.8565C42.1802 32.3102 41.5279 26.5215 45.5552 24.3015Z" fill="#FDFDFD"/>
<path d="M63.75 16.17H66.22C66.72 16.17 67.1567 16.2267 67.53 16.34C67.91 16.4533 68.2367 16.6067 68.51 16.8C68.79 16.9867 69.02 17.2033 69.2 17.45C69.3867 17.6967 69.5333 17.95 69.64 18.21C69.7467 18.47 69.8233 18.73 69.87 18.99C69.9167 19.25 69.94 19.49 69.94 19.71C69.94 20.1633 69.8567 20.6033 69.69 21.03C69.5233 21.45 69.2767 21.8267 68.95 22.16C68.6233 22.4867 68.2167 22.75 67.73 22.95C67.25 23.15 66.6933 23.25 66.06 23.25H63.75V16.17ZM64.71 22.35H65.92C66.3267 22.35 66.71 22.2967 67.07 22.19C67.4367 22.0767 67.7567 21.91 68.03 21.69C68.3033 21.47 68.52 21.1967 68.68 20.87C68.84 20.5367 68.92 20.15 68.92 19.71C68.92 19.4833 68.8833 19.22 68.81 18.92C68.7367 18.6133 68.5967 18.3233 68.39 18.05C68.19 17.7767 67.91 17.5467 67.55 17.36C67.19 17.1667 66.7233 17.07 66.15 17.07H64.71V22.35ZM71.8221 20.88C71.8221 21.12 71.8588 21.3433 71.9321 21.55C72.0054 21.75 72.1088 21.9233 72.2421 22.07C72.3754 22.21 72.5388 22.3233 72.7321 22.41C72.9254 22.49 73.1421 22.53 73.3821 22.53C73.6221 22.53 73.8388 22.49 74.0321 22.41C74.2254 22.3233 74.3888 22.21 74.5221 22.07C74.6554 21.9233 74.7588 21.75 74.8321 21.55C74.9054 21.3433 74.9421 21.12 74.9421 20.88C74.9421 20.64 74.9054 20.42 74.8321 20.22C74.7588 20.0133 74.6554 19.84 74.5221 19.7C74.3888 19.5533 74.2254 19.44 74.0321 19.36C73.8388 19.2733 73.6221 19.23 73.3821 19.23C73.1421 19.23 72.9254 19.2733 72.7321 19.36C72.5388 19.44 72.3754 19.5533 72.2421 19.7C72.1088 19.84 72.0054 20.0133 71.9321 20.22C71.8588 20.42 71.8221 20.64 71.8221 20.88ZM70.8621 20.88C70.8621 20.5333 70.9254 20.21 71.0521 19.91C71.1854 19.61 71.3654 19.3467 71.5921 19.12C71.8188 18.8933 72.0854 18.7167 72.3921 18.59C72.6988 18.4567 73.0288 18.39 73.3821 18.39C73.7354 18.39 74.0654 18.4567 74.3721 18.59C74.6788 18.7167 74.9454 18.8933 75.1721 19.12C75.3988 19.3467 75.5754 19.61 75.7021 19.91C75.8354 20.21 75.9021 20.5333 75.9021 20.88C75.9021 21.2267 75.8354 21.5533 75.7021 21.86C75.5754 22.16 75.3988 22.4233 75.1721 22.65C74.9454 22.87 74.6788 23.0467 74.3721 23.18C74.0654 23.3067 73.7354 23.37 73.3821 23.37C73.0288 23.37 72.6988 23.3067 72.3921 23.18C72.0854 23.0467 71.8188 22.87 71.5921 22.65C71.3654 22.4233 71.1854 22.16 71.0521 21.86C70.9254 21.5533 70.8621 21.2267 70.8621 20.88ZM76.4596 18.51H77.4696L78.5396 22.05H78.5596L79.6896 18.51H80.6396L81.8396 22.05H81.8596L82.8796 18.51H83.8296L82.2996 23.25H81.3896L80.1396 19.71H80.1196L78.9896 23.25H78.0196L76.4596 18.51ZM84.6175 18.51H85.5175V19.24H85.5375C85.6508 18.9867 85.8475 18.7833 86.1275 18.63C86.4075 18.47 86.7308 18.39 87.0975 18.39C87.3242 18.39 87.5408 18.4267 87.7475 18.5C87.9608 18.5667 88.1442 18.6733 88.2975 18.82C88.4575 18.9667 88.5842 19.1567 88.6775 19.39C88.7708 19.6167 88.8175 19.8867 88.8175 20.2V23.25H87.9175V20.45C87.9175 20.23 87.8875 20.0433 87.8275 19.89C87.7675 19.73 87.6875 19.6033 87.5875 19.51C87.4875 19.41 87.3708 19.34 87.2375 19.3C87.1108 19.2533 86.9775 19.23 86.8375 19.23C86.6508 19.23 86.4775 19.26 86.3175 19.32C86.1575 19.38 86.0175 19.4767 85.8975 19.61C85.7775 19.7367 85.6842 19.9 85.6175 20.1C85.5508 20.3 85.5175 20.5367 85.5175 20.81V23.25H84.6175V18.51ZM90.2441 15.69H91.1441V23.25H90.2441V15.69ZM93.3065 20.88C93.3065 21.12 93.3432 21.3433 93.4165 21.55C93.4898 21.75 93.5932 21.9233 93.7265 22.07C93.8598 22.21 94.0232 22.3233 94.2165 22.41C94.4098 22.49 94.6265 22.53 94.8665 22.53C95.1065 22.53 95.3232 22.49 95.5165 22.41C95.7098 22.3233 95.8732 22.21 96.0065 22.07C96.1398 21.9233 96.2432 21.75 96.3165 21.55C96.3898 21.3433 96.4265 21.12 96.4265 20.88C96.4265 20.64 96.3898 20.42 96.3165 20.22C96.2432 20.0133 96.1398 19.84 96.0065 19.7C95.8732 19.5533 95.7098 19.44 95.5165 19.36C95.3232 19.2733 95.1065 19.23 94.8665 19.23C94.6265 19.23 94.4098 19.2733 94.2165 19.36C94.0232 19.44 93.8598 19.5533 93.7265 19.7C93.5932 19.84 93.4898 20.0133 93.4165 20.22C93.3432 20.42 93.3065 20.64 93.3065 20.88ZM92.3465 20.88C92.3465 20.5333 92.4098 20.21 92.5365 19.91C92.6698 19.61 92.8498 19.3467 93.0765 19.12C93.3032 18.8933 93.5698 18.7167 93.8765 18.59C94.1832 18.4567 94.5132 18.39 94.8665 18.39C95.2198 18.39 95.5498 18.4567 95.8565 18.59C96.1632 18.7167 96.4298 18.8933 96.6565 19.12C96.8832 19.3467 97.0598 19.61 97.1865 19.91C97.3198 20.21 97.3865 20.5333 97.3865 20.88C97.3865 21.2267 97.3198 21.5533 97.1865 21.86C97.0598 22.16 96.8832 22.4233 96.6565 22.65C96.4298 22.87 96.1632 23.0467 95.8565 23.18C95.5498 23.3067 95.2198 23.37 94.8665 23.37C94.5132 23.37 94.1832 23.3067 93.8765 23.18C93.5698 23.0467 93.3032 22.87 93.0765 22.65C92.8498 22.4233 92.6698 22.16 92.5365 21.86C92.4098 21.5533 92.3465 21.2267 92.3465 20.88ZM98.534 19.09C98.7873 18.8567 99.0807 18.6833 99.414 18.57C99.7473 18.45 100.081 18.39 100.414 18.39C100.761 18.39 101.057 18.4333 101.304 18.52C101.557 18.6067 101.764 18.7233 101.924 18.87C102.084 19.0167 102.201 19.1867 102.274 19.38C102.354 19.5667 102.394 19.7633 102.394 19.97V22.39C102.394 22.5567 102.397 22.71 102.404 22.85C102.411 22.99 102.421 23.1233 102.434 23.25H101.634C101.614 23.01 101.604 22.77 101.604 22.53H101.584C101.384 22.8367 101.147 23.0533 100.874 23.18C100.601 23.3067 100.284 23.37 99.924 23.37C99.704 23.37 99.494 23.34 99.294 23.28C99.094 23.22 98.9173 23.13 98.764 23.01C98.6173 22.89 98.5007 22.7433 98.414 22.57C98.3273 22.39 98.284 22.1833 98.284 21.95C98.284 21.6433 98.3507 21.3867 98.484 21.18C98.624 20.9733 98.8107 20.8067 99.044 20.68C99.284 20.5467 99.5607 20.4533 99.874 20.4C100.194 20.34 100.534 20.31 100.894 20.31H101.554V20.11C101.554 19.99 101.531 19.87 101.484 19.75C101.437 19.63 101.367 19.5233 101.274 19.43C101.181 19.33 101.064 19.2533 100.924 19.2C100.784 19.14 100.617 19.11 100.424 19.11C100.251 19.11 100.097 19.1267 99.964 19.16C99.8373 19.1933 99.7207 19.2367 99.614 19.29C99.5073 19.3367 99.4107 19.3933 99.324 19.46C99.2373 19.5267 99.154 19.59 99.074 19.65L98.534 19.09ZM101.074 20.97C100.861 20.97 100.641 20.9833 100.414 21.01C100.194 21.03 99.9907 21.0733 99.804 21.14C99.624 21.2067 99.474 21.3 99.354 21.42C99.2407 21.54 99.184 21.6933 99.184 21.88C99.184 22.1533 99.274 22.35 99.454 22.47C99.6407 22.59 99.8907 22.65 100.204 22.65C100.451 22.65 100.661 22.61 100.834 22.53C101.007 22.4433 101.147 22.3333 101.254 22.2C101.361 22.0667 101.437 21.92 101.484 21.76C101.531 21.5933 101.554 21.43 101.554 21.27V20.97H101.074ZM108.45 23.25H107.55V22.57H107.53C107.356 22.8233 107.116 23.02 106.81 23.16C106.51 23.3 106.2 23.37 105.88 23.37C105.513 23.37 105.18 23.3067 104.88 23.18C104.586 23.0533 104.333 22.8767 104.12 22.65C103.913 22.4233 103.753 22.16 103.64 21.86C103.526 21.56 103.47 21.2333 103.47 20.88C103.47 20.5267 103.526 20.2 103.64 19.9C103.753 19.5933 103.913 19.33 104.12 19.11C104.333 18.8833 104.586 18.7067 104.88 18.58C105.18 18.4533 105.513 18.39 105.88 18.39C106.22 18.39 106.54 18.4633 106.84 18.61C107.14 18.75 107.37 18.9433 107.53 19.19H107.55V15.69H108.45V23.25ZM105.99 22.53C106.23 22.53 106.446 22.49 106.64 22.41C106.833 22.3233 106.996 22.21 107.13 22.07C107.263 21.9233 107.366 21.75 107.44 21.55C107.513 21.3433 107.55 21.12 107.55 20.88C107.55 20.64 107.513 20.42 107.44 20.22C107.366 20.0133 107.263 19.84 107.13 19.7C106.996 19.5533 106.833 19.44 106.64 19.36C106.446 19.2733 106.23 19.23 105.99 19.23C105.75 19.23 105.533 19.2733 105.34 19.36C105.146 19.44 104.983 19.5533 104.85 19.7C104.716 19.84 104.613 20.0133 104.54 20.22C104.466 20.42 104.43 20.64 104.43 20.88C104.43 21.12 104.466 21.3433 104.54 21.55C104.613 21.75 104.716 21.9233 104.85 22.07C104.983 22.21 105.146 22.3233 105.34 22.41C105.533 22.49 105.75 22.53 105.99 22.53ZM113.326 20.88C113.326 21.12 113.363 21.3433 113.436 21.55C113.509 21.75 113.613 21.9233 113.746 22.07C113.879 22.21 114.043 22.3233 114.236 22.41C114.429 22.49 114.646 22.53 114.886 22.53C115.126 22.53 115.343 22.49 115.536 22.41C115.729 22.3233 115.893 22.21 116.026 22.07C116.159 21.9233 116.263 21.75 116.336 21.55C116.409 21.3433 116.446 21.12 116.446 20.88C116.446 20.64 116.409 20.42 116.336 20.22C116.263 20.0133 116.159 19.84 116.026 19.7C115.893 19.5533 115.729 19.44 115.536 19.36C115.343 19.2733 115.126 19.23 114.886 19.23C114.646 19.23 114.429 19.2733 114.236 19.36C114.043 19.44 113.879 19.5533 113.746 19.7C113.613 19.84 113.509 20.0133 113.436 20.22C113.363 20.42 113.326 20.64 113.326 20.88ZM112.366 20.88C112.366 20.5333 112.429 20.21 112.556 19.91C112.689 19.61 112.869 19.3467 113.096 19.12C113.323 18.8933 113.589 18.7167 113.896 18.59C114.203 18.4567 114.533 18.39 114.886 18.39C115.239 18.39 115.569 18.4567 115.876 18.59C116.183 18.7167 116.449 18.8933 116.676 19.12C116.903 19.3467 117.079 19.61 117.206 19.91C117.339 20.21 117.406 20.5333 117.406 20.88C117.406 21.2267 117.339 21.5533 117.206 21.86C117.079 22.16 116.903 22.4233 116.676 22.65C116.449 22.87 116.183 23.0467 115.876 23.18C115.569 23.3067 115.239 23.37 114.886 23.37C114.533 23.37 114.203 23.3067 113.896 23.18C113.589 23.0467 113.323 22.87 113.096 22.65C112.869 22.4233 112.689 22.16 112.556 21.86C112.429 21.5533 112.366 21.2267 112.366 20.88ZM118.534 18.51H119.434V19.24H119.454C119.567 18.9867 119.764 18.7833 120.044 18.63C120.324 18.47 120.647 18.39 121.014 18.39C121.24 18.39 121.457 18.4267 121.664 18.5C121.877 18.5667 122.06 18.6733 122.214 18.82C122.374 18.9667 122.5 19.1567 122.594 19.39C122.687 19.6167 122.734 19.8867 122.734 20.2V23.25H121.834V20.45C121.834 20.23 121.804 20.0433 121.744 19.89C121.684 19.73 121.604 19.6033 121.504 19.51C121.404 19.41 121.287 19.34 121.154 19.3C121.027 19.2533 120.894 19.23 120.754 19.23C120.567 19.23 120.394 19.26 120.234 19.32C120.074 19.38 119.934 19.4767 119.814 19.61C119.694 19.7367 119.6 19.9 119.534 20.1C119.467 20.3 119.434 20.5367 119.434 20.81V23.25H118.534V18.51Z" fill="white"/>
<path d="M67.928 29.922H69.672L74.552 41.25H72.248L71.192 38.658H66.28L65.256 41.25H63L67.928 29.922ZM70.488 36.93L68.744 32.322L66.968 36.93H70.488ZM75.6349 33.57H77.4589V34.722H77.4909C77.7682 34.2527 78.1415 33.9113 78.6109 33.698C79.0802 33.4847 79.5869 33.378 80.1309 33.378C80.7175 33.378 81.2455 33.4847 81.7149 33.698C82.1842 33.9007 82.5842 34.1833 82.9149 34.546C83.2455 34.9087 83.4962 35.3353 83.6669 35.826C83.8375 36.3167 83.9229 36.8447 83.9229 37.41C83.9229 37.9753 83.8322 38.5033 83.6509 38.994C83.4695 39.4847 83.2135 39.9113 82.8829 40.274C82.5629 40.6367 82.1735 40.9247 81.7149 41.138C81.2562 41.3407 80.7549 41.442 80.2109 41.442C79.8482 41.442 79.5282 41.4047 79.2509 41.33C78.9735 41.2553 78.7282 41.1593 78.5149 41.042C78.3015 40.9247 78.1202 40.802 77.9709 40.674C77.8215 40.5353 77.6989 40.402 77.6029 40.274H77.5549V44.898H75.6349V33.57ZM82.0029 37.41C82.0029 37.1113 81.9495 36.8233 81.8429 36.546C81.7469 36.2687 81.5975 36.0233 81.3949 35.81C81.2029 35.5967 80.9682 35.426 80.6909 35.298C80.4135 35.17 80.0989 35.106 79.7469 35.106C79.3949 35.106 79.0802 35.17 78.8029 35.298C78.5255 35.426 78.2855 35.5967 78.0829 35.81C77.8909 36.0233 77.7415 36.2687 77.6349 36.546C77.5389 36.8233 77.4909 37.1113 77.4909 37.41C77.4909 37.7087 77.5389 37.9967 77.6349 38.274C77.7415 38.5513 77.8909 38.7967 78.0829 39.01C78.2855 39.2233 78.5255 39.394 78.8029 39.522C79.0802 39.65 79.3949 39.714 79.7469 39.714C80.0989 39.714 80.4135 39.65 80.6909 39.522C80.9682 39.394 81.2029 39.2233 81.3949 39.01C81.5975 38.7967 81.7469 38.5513 81.8429 38.274C81.9495 37.9967 82.0029 37.7087 82.0029 37.41ZM85.713 33.57H87.537V34.722H87.569C87.8463 34.2527 88.2197 33.9113 88.689 33.698C89.1583 33.4847 89.665 33.378 90.209 33.378C90.7957 33.378 91.3237 33.4847 91.793 33.698C92.2623 33.9007 92.6623 34.1833 92.993 34.546C93.3237 34.9087 93.5743 35.3353 93.745 35.826C93.9157 36.3167 94.001 36.8447 94.001 37.41C94.001 37.9753 93.9103 38.5033 93.729 38.994C93.5477 39.4847 93.2917 39.9113 92.961 40.274C92.641 40.6367 92.2517 40.9247 91.793 41.138C91.3343 41.3407 90.833 41.442 90.289 41.442C89.9263 41.442 89.6063 41.4047 89.329 41.33C89.0517 41.2553 88.8063 41.1593 88.593 41.042C88.3797 40.9247 88.1983 40.802 88.049 40.674C87.8997 40.5353 87.777 40.402 87.681 40.274H87.633V44.898H85.713V33.57ZM92.081 37.41C92.081 37.1113 92.0277 36.8233 91.921 36.546C91.825 36.2687 91.6757 36.0233 91.473 35.81C91.281 35.5967 91.0463 35.426 90.769 35.298C90.4917 35.17 90.177 35.106 89.825 35.106C89.473 35.106 89.1583 35.17 88.881 35.298C88.6037 35.426 88.3637 35.5967 88.161 35.81C87.969 36.0233 87.8197 36.2687 87.713 36.546C87.617 36.8233 87.569 37.1113 87.569 37.41C87.569 37.7087 87.617 37.9967 87.713 38.274C87.8197 38.5513 87.969 38.7967 88.161 39.01C88.3637 39.2233 88.6037 39.394 88.881 39.522C89.1583 39.65 89.473 39.714 89.825 39.714C90.177 39.714 90.4917 39.65 90.769 39.522C91.0463 39.394 91.281 39.2233 91.473 39.01C91.6757 38.7967 91.825 38.5513 91.921 38.274C92.0277 37.9967 92.081 37.7087 92.081 37.41ZM99.8871 35.698C99.5138 35.1753 99.0125 34.914 98.3831 34.914C98.1271 34.914 97.8765 34.978 97.6311 35.106C97.3858 35.234 97.2631 35.442 97.2631 35.73C97.2631 35.9647 97.3645 36.1353 97.5671 36.242C97.7698 36.3487 98.0258 36.4393 98.3351 36.514C98.6445 36.5887 98.9751 36.6687 99.3271 36.754C99.6898 36.8287 100.026 36.9513 100.335 37.122C100.644 37.282 100.9 37.506 101.103 37.794C101.306 38.082 101.407 38.4767 101.407 38.978C101.407 39.4367 101.306 39.826 101.103 40.146C100.911 40.4553 100.655 40.706 100.335 40.898C100.026 41.09 99.6738 41.2287 99.2791 41.314C98.8845 41.3993 98.4898 41.442 98.0951 41.442C97.4978 41.442 96.9485 41.3567 96.4471 41.186C95.9458 41.0153 95.4978 40.706 95.1031 40.258L96.3831 39.058C96.6285 39.3353 96.8898 39.5647 97.1671 39.746C97.4551 39.9167 97.8018 40.002 98.2071 40.002C98.3458 40.002 98.4898 39.986 98.6391 39.954C98.7885 39.922 98.9271 39.8687 99.0551 39.794C99.1831 39.7193 99.2845 39.6287 99.3591 39.522C99.4445 39.4047 99.4871 39.2713 99.4871 39.122C99.4871 38.8553 99.3858 38.658 99.1831 38.53C98.9805 38.402 98.7245 38.3007 98.4151 38.226C98.1058 38.1407 97.7698 38.066 97.4071 38.002C97.0551 37.9273 96.7245 37.8153 96.4151 37.666C96.1058 37.506 95.8498 37.2873 95.6471 37.01C95.4445 36.7327 95.3431 36.3487 95.3431 35.858C95.3431 35.4313 95.4285 35.0633 95.5991 34.754C95.7805 34.434 96.0151 34.1727 96.3031 33.97C96.5911 33.7673 96.9218 33.618 97.2951 33.522C97.6685 33.426 98.0471 33.378 98.4311 33.378C98.9431 33.378 99.4498 33.4687 99.9511 33.65C100.452 33.8207 100.858 34.1193 101.167 34.546L99.8871 35.698ZM102.005 35.202V33.57H103.589V31.346H105.509V33.57H107.621V35.202H105.509V38.562C105.509 38.946 105.578 39.25 105.717 39.474C105.866 39.698 106.154 39.81 106.581 39.81C106.751 39.81 106.938 39.794 107.141 39.762C107.343 39.7193 107.503 39.6553 107.621 39.57V41.186C107.418 41.282 107.167 41.346 106.869 41.378C106.581 41.4207 106.325 41.442 106.101 41.442C105.589 41.442 105.167 41.3833 104.837 41.266C104.517 41.1593 104.261 40.994 104.069 40.77C103.887 40.5353 103.759 40.2473 103.685 39.906C103.621 39.5647 103.589 39.17 103.589 38.722V35.202H102.005ZM108.735 37.41C108.735 36.802 108.842 36.2527 109.055 35.762C109.279 35.2607 109.578 34.834 109.951 34.482C110.325 34.13 110.767 33.858 111.279 33.666C111.791 33.474 112.335 33.378 112.911 33.378C113.487 33.378 114.031 33.474 114.543 33.666C115.055 33.858 115.498 34.13 115.871 34.482C116.245 34.834 116.538 35.2607 116.751 35.762C116.975 36.2527 117.087 36.802 117.087 37.41C117.087 38.018 116.975 38.5727 116.751 39.074C116.538 39.5647 116.245 39.986 115.871 40.338C115.498 40.69 115.055 40.962 114.543 41.154C114.031 41.346 113.487 41.442 112.911 41.442C112.335 41.442 111.791 41.346 111.279 41.154C110.767 40.962 110.325 40.69 109.951 40.338C109.578 39.986 109.279 39.5647 109.055 39.074C108.842 38.5727 108.735 38.018 108.735 37.41ZM110.655 37.41C110.655 37.7087 110.703 37.9967 110.799 38.274C110.906 38.5513 111.055 38.7967 111.247 39.01C111.45 39.2233 111.69 39.394 111.967 39.522C112.245 39.65 112.559 39.714 112.911 39.714C113.263 39.714 113.578 39.65 113.855 39.522C114.133 39.394 114.367 39.2233 114.559 39.01C114.762 38.7967 114.911 38.5513 115.007 38.274C115.114 37.9967 115.167 37.7087 115.167 37.41C115.167 37.1113 115.114 36.8233 115.007 36.546C114.911 36.2687 114.762 36.0233 114.559 35.81C114.367 35.5967 114.133 35.426 113.855 35.298C113.578 35.17 113.263 35.106 112.911 35.106C112.559 35.106 112.245 35.17 111.967 35.298C111.69 35.426 111.45 35.5967 111.247 35.81C111.055 36.0233 110.906 36.2687 110.799 36.546C110.703 36.8233 110.655 37.1113 110.655 37.41ZM118.885 33.57H120.805V34.786H120.837C121.05 34.338 121.354 33.9913 121.749 33.746C122.144 33.5007 122.597 33.378 123.109 33.378C123.226 33.378 123.338 33.3887 123.445 33.41C123.562 33.4313 123.68 33.458 123.797 33.49V35.346C123.637 35.3033 123.477 35.2713 123.317 35.25C123.168 35.218 123.018 35.202 122.869 35.202C122.421 35.202 122.058 35.2873 121.781 35.458C121.514 35.618 121.306 35.8047 121.157 36.018C121.018 36.2313 120.922 36.4447 120.869 36.658C120.826 36.8713 120.805 37.0313 120.805 37.138V41.25H118.885V33.57ZM126.358 38.082C126.422 38.658 126.646 39.106 127.03 39.426C127.414 39.746 127.878 39.906 128.422 39.906C128.902 39.906 129.302 39.81 129.622 39.618C129.953 39.4153 130.241 39.1647 130.486 38.866L131.862 39.906C131.414 40.4607 130.913 40.8553 130.358 41.09C129.804 41.3247 129.222 41.442 128.614 41.442C128.038 41.442 127.494 41.346 126.982 41.154C126.47 40.962 126.028 40.69 125.654 40.338C125.281 39.986 124.982 39.5647 124.758 39.074C124.545 38.5727 124.438 38.018 124.438 37.41C124.438 36.802 124.545 36.2527 124.758 35.762C124.982 35.2607 125.281 34.834 125.654 34.482C126.028 34.13 126.47 33.858 126.982 33.666C127.494 33.474 128.038 33.378 128.614 33.378C129.148 33.378 129.633 33.474 130.07 33.666C130.518 33.8473 130.897 34.114 131.206 34.466C131.526 34.818 131.772 35.2553 131.942 35.778C132.124 36.29 132.214 36.882 132.214 37.554V38.082H126.358ZM130.294 36.642C130.284 36.0767 130.108 35.634 129.766 35.314C129.425 34.9833 128.95 34.818 128.342 34.818C127.766 34.818 127.308 34.9833 126.966 35.314C126.636 35.6447 126.433 36.0873 126.358 36.642H130.294Z" fill="white"/>
<rect x="174.09" y="0.25" width="158" height="56" rx="28" fill="black"/>
<path d="M219.508 25.9678L203.191 16.6412C202.792 16.4132 202.339 16.2942 201.879 16.2959C201.419 16.2977 200.967 16.4202 200.569 16.6512C200.171 16.8823 199.841 17.2137 199.612 17.6124C199.382 18.0112 199.261 18.4632 199.261 18.9233V37.5765C199.261 38.037 199.382 38.4894 199.611 38.8884C199.841 39.2874 200.172 39.619 200.57 39.8501C200.968 40.0812 201.42 40.2037 201.881 40.2052C202.341 40.2067 202.794 40.0872 203.194 39.8587L219.507 30.5316C219.91 30.3017 220.244 29.9696 220.476 29.5688C220.709 29.1681 220.831 28.713 220.831 28.2497C220.831 27.7864 220.709 27.3313 220.476 26.9306C220.244 26.5299 219.91 26.1977 219.508 25.9678ZM212.437 23.7625L210.197 26.8836L204.838 19.419L212.437 23.7625ZM201.784 38.6017C201.638 38.5885 201.496 38.544 201.368 38.471C201.211 38.3797 201.081 38.2488 200.99 38.0915C200.9 37.9342 200.852 37.7559 200.852 37.5744V18.9233C200.852 18.6671 200.947 18.4198 201.119 18.2299C201.291 18.0399 201.527 17.9209 201.782 17.896L209.216 28.2499L201.784 38.6017ZM204.838 37.0808L210.197 29.6162L212.437 32.7369L204.838 37.0808ZM218.715 29.1478L213.828 31.9419L211.178 28.2499L213.829 24.558L218.717 27.3533C218.875 27.4437 219.007 27.5744 219.098 27.7321C219.19 27.8898 219.238 28.0689 219.238 28.2512C219.238 28.4335 219.19 28.6126 219.098 28.7703C219.007 28.928 218.875 29.0587 218.717 29.1491L218.715 29.1478Z" fill="#FDFDFD"/>
<path d="M237.75 16.17H240.22C240.72 16.17 241.157 16.2267 241.53 16.34C241.91 16.4533 242.237 16.6067 242.51 16.8C242.79 16.9867 243.02 17.2033 243.2 17.45C243.387 17.6967 243.533 17.95 243.64 18.21C243.747 18.47 243.823 18.73 243.87 18.99C243.917 19.25 243.94 19.49 243.94 19.71C243.94 20.1633 243.857 20.6033 243.69 21.03C243.523 21.45 243.277 21.8267 242.95 22.16C242.623 22.4867 242.217 22.75 241.73 22.95C241.25 23.15 240.693 23.25 240.06 23.25H237.75V16.17ZM238.71 22.35H239.92C240.327 22.35 240.71 22.2967 241.07 22.19C241.437 22.0767 241.757 21.91 242.03 21.69C242.303 21.47 242.52 21.1967 242.68 20.87C242.84 20.5367 242.92 20.15 242.92 19.71C242.92 19.4833 242.883 19.22 242.81 18.92C242.737 18.6133 242.597 18.3233 242.39 18.05C242.19 17.7767 241.91 17.5467 241.55 17.36C241.19 17.1667 240.723 17.07 240.15 17.07H238.71V22.35ZM245.822 20.88C245.822 21.12 245.859 21.3433 245.932 21.55C246.005 21.75 246.109 21.9233 246.242 22.07C246.375 22.21 246.539 22.3233 246.732 22.41C246.925 22.49 247.142 22.53 247.382 22.53C247.622 22.53 247.839 22.49 248.032 22.41C248.225 22.3233 248.389 22.21 248.522 22.07C248.655 21.9233 248.759 21.75 248.832 21.55C248.905 21.3433 248.942 21.12 248.942 20.88C248.942 20.64 248.905 20.42 248.832 20.22C248.759 20.0133 248.655 19.84 248.522 19.7C248.389 19.5533 248.225 19.44 248.032 19.36C247.839 19.2733 247.622 19.23 247.382 19.23C247.142 19.23 246.925 19.2733 246.732 19.36C246.539 19.44 246.375 19.5533 246.242 19.7C246.109 19.84 246.005 20.0133 245.932 20.22C245.859 20.42 245.822 20.64 245.822 20.88ZM244.862 20.88C244.862 20.5333 244.925 20.21 245.052 19.91C245.185 19.61 245.365 19.3467 245.592 19.12C245.819 18.8933 246.085 18.7167 246.392 18.59C246.699 18.4567 247.029 18.39 247.382 18.39C247.735 18.39 248.065 18.4567 248.372 18.59C248.679 18.7167 248.945 18.8933 249.172 19.12C249.399 19.3467 249.575 19.61 249.702 19.91C249.835 20.21 249.902 20.5333 249.902 20.88C249.902 21.2267 249.835 21.5533 249.702 21.86C249.575 22.16 249.399 22.4233 249.172 22.65C248.945 22.87 248.679 23.0467 248.372 23.18C248.065 23.3067 247.735 23.37 247.382 23.37C247.029 23.37 246.699 23.3067 246.392 23.18C246.085 23.0467 245.819 22.87 245.592 22.65C245.365 22.4233 245.185 22.16 245.052 21.86C244.925 21.5533 244.862 21.2267 244.862 20.88ZM250.46 18.51H251.47L252.54 22.05H252.56L253.69 18.51H254.64L255.84 22.05H255.86L256.88 18.51H257.83L256.3 23.25H255.39L254.14 19.71H254.12L252.99 23.25H252.02L250.46 18.51ZM258.618 18.51H259.518V19.24H259.538C259.651 18.9867 259.848 18.7833 260.128 18.63C260.408 18.47 260.731 18.39 261.098 18.39C261.324 18.39 261.541 18.4267 261.748 18.5C261.961 18.5667 262.144 18.6733 262.298 18.82C262.458 18.9667 262.584 19.1567 262.678 19.39C262.771 19.6167 262.818 19.8867 262.818 20.2V23.25H261.918V20.45C261.918 20.23 261.888 20.0433 261.828 19.89C261.768 19.73 261.688 19.6033 261.588 19.51C261.488 19.41 261.371 19.34 261.238 19.3C261.111 19.2533 260.978 19.23 260.838 19.23C260.651 19.23 260.478 19.26 260.318 19.32C260.158 19.38 260.018 19.4767 259.898 19.61C259.778 19.7367 259.684 19.9 259.618 20.1C259.551 20.3 259.518 20.5367 259.518 20.81V23.25H258.618V18.51ZM264.244 15.69H265.144V23.25H264.244V15.69ZM267.307 20.88C267.307 21.12 267.343 21.3433 267.417 21.55C267.49 21.75 267.593 21.9233 267.727 22.07C267.86 22.21 268.023 22.3233 268.217 22.41C268.41 22.49 268.627 22.53 268.867 22.53C269.107 22.53 269.323 22.49 269.517 22.41C269.71 22.3233 269.873 22.21 270.007 22.07C270.14 21.9233 270.243 21.75 270.317 21.55C270.39 21.3433 270.427 21.12 270.427 20.88C270.427 20.64 270.39 20.42 270.317 20.22C270.243 20.0133 270.14 19.84 270.007 19.7C269.873 19.5533 269.71 19.44 269.517 19.36C269.323 19.2733 269.107 19.23 268.867 19.23C268.627 19.23 268.41 19.2733 268.217 19.36C268.023 19.44 267.86 19.5533 267.727 19.7C267.593 19.84 267.49 20.0133 267.417 20.22C267.343 20.42 267.307 20.64 267.307 20.88ZM266.347 20.88C266.347 20.5333 266.41 20.21 266.537 19.91C266.67 19.61 266.85 19.3467 267.077 19.12C267.303 18.8933 267.57 18.7167 267.877 18.59C268.183 18.4567 268.513 18.39 268.867 18.39C269.22 18.39 269.55 18.4567 269.857 18.59C270.163 18.7167 270.43 18.8933 270.657 19.12C270.883 19.3467 271.06 19.61 271.187 19.91C271.32 20.21 271.387 20.5333 271.387 20.88C271.387 21.2267 271.32 21.5533 271.187 21.86C271.06 22.16 270.883 22.4233 270.657 22.65C270.43 22.87 270.163 23.0467 269.857 23.18C269.55 23.3067 269.22 23.37 268.867 23.37C268.513 23.37 268.183 23.3067 267.877 23.18C267.57 23.0467 267.303 22.87 267.077 22.65C266.85 22.4233 266.67 22.16 266.537 21.86C266.41 21.5533 266.347 21.2267 266.347 20.88ZM272.534 19.09C272.787 18.8567 273.081 18.6833 273.414 18.57C273.747 18.45 274.081 18.39 274.414 18.39C274.761 18.39 275.057 18.4333 275.304 18.52C275.557 18.6067 275.764 18.7233 275.924 18.87C276.084 19.0167 276.201 19.1867 276.274 19.38C276.354 19.5667 276.394 19.7633 276.394 19.97V22.39C276.394 22.5567 276.397 22.71 276.404 22.85C276.411 22.99 276.421 23.1233 276.434 23.25H275.634C275.614 23.01 275.604 22.77 275.604 22.53H275.584C275.384 22.8367 275.147 23.0533 274.874 23.18C274.601 23.3067 274.284 23.37 273.924 23.37C273.704 23.37 273.494 23.34 273.294 23.28C273.094 23.22 272.917 23.13 272.764 23.01C272.617 22.89 272.501 22.7433 272.414 22.57C272.327 22.39 272.284 22.1833 272.284 21.95C272.284 21.6433 272.351 21.3867 272.484 21.18C272.624 20.9733 272.811 20.8067 273.044 20.68C273.284 20.5467 273.561 20.4533 273.874 20.4C274.194 20.34 274.534 20.31 274.894 20.31H275.554V20.11C275.554 19.99 275.531 19.87 275.484 19.75C275.437 19.63 275.367 19.5233 275.274 19.43C275.181 19.33 275.064 19.2533 274.924 19.2C274.784 19.14 274.617 19.11 274.424 19.11C274.251 19.11 274.097 19.1267 273.964 19.16C273.837 19.1933 273.721 19.2367 273.614 19.29C273.507 19.3367 273.411 19.3933 273.324 19.46C273.237 19.5267 273.154 19.59 273.074 19.65L272.534 19.09ZM275.074 20.97C274.861 20.97 274.641 20.9833 274.414 21.01C274.194 21.03 273.991 21.0733 273.804 21.14C273.624 21.2067 273.474 21.3 273.354 21.42C273.241 21.54 273.184 21.6933 273.184 21.88C273.184 22.1533 273.274 22.35 273.454 22.47C273.641 22.59 273.891 22.65 274.204 22.65C274.451 22.65 274.661 22.61 274.834 22.53C275.007 22.4433 275.147 22.3333 275.254 22.2C275.361 22.0667 275.437 21.92 275.484 21.76C275.531 21.5933 275.554 21.43 275.554 21.27V20.97H275.074ZM282.45 23.25H281.55V22.57H281.53C281.356 22.8233 281.116 23.02 280.81 23.16C280.51 23.3 280.2 23.37 279.88 23.37C279.513 23.37 279.18 23.3067 278.88 23.18C278.586 23.0533 278.333 22.8767 278.12 22.65C277.913 22.4233 277.753 22.16 277.64 21.86C277.526 21.56 277.47 21.2333 277.47 20.88C277.47 20.5267 277.526 20.2 277.64 19.9C277.753 19.5933 277.913 19.33 278.12 19.11C278.333 18.8833 278.586 18.7067 278.88 18.58C279.18 18.4533 279.513 18.39 279.88 18.39C280.22 18.39 280.54 18.4633 280.84 18.61C281.14 18.75 281.37 18.9433 281.53 19.19H281.55V15.69H282.45V23.25ZM279.99 22.53C280.23 22.53 280.446 22.49 280.64 22.41C280.833 22.3233 280.996 22.21 281.13 22.07C281.263 21.9233 281.366 21.75 281.44 21.55C281.513 21.3433 281.55 21.12 281.55 20.88C281.55 20.64 281.513 20.42 281.44 20.22C281.366 20.0133 281.263 19.84 281.13 19.7C280.996 19.5533 280.833 19.44 280.64 19.36C280.446 19.2733 280.23 19.23 279.99 19.23C279.75 19.23 279.533 19.2733 279.34 19.36C279.146 19.44 278.983 19.5533 278.85 19.7C278.716 19.84 278.613 20.0133 278.54 20.22C278.466 20.42 278.43 20.64 278.43 20.88C278.43 21.12 278.466 21.3433 278.54 21.55C278.613 21.75 278.716 21.9233 278.85 22.07C278.983 22.21 279.146 22.3233 279.34 22.41C279.533 22.49 279.75 22.53 279.99 22.53ZM287.326 20.88C287.326 21.12 287.363 21.3433 287.436 21.55C287.509 21.75 287.613 21.9233 287.746 22.07C287.879 22.21 288.043 22.3233 288.236 22.41C288.429 22.49 288.646 22.53 288.886 22.53C289.126 22.53 289.343 22.49 289.536 22.41C289.729 22.3233 289.893 22.21 290.026 22.07C290.159 21.9233 290.263 21.75 290.336 21.55C290.409 21.3433 290.446 21.12 290.446 20.88C290.446 20.64 290.409 20.42 290.336 20.22C290.263 20.0133 290.159 19.84 290.026 19.7C289.893 19.5533 289.729 19.44 289.536 19.36C289.343 19.2733 289.126 19.23 288.886 19.23C288.646 19.23 288.429 19.2733 288.236 19.36C288.043 19.44 287.879 19.5533 287.746 19.7C287.613 19.84 287.509 20.0133 287.436 20.22C287.363 20.42 287.326 20.64 287.326 20.88ZM286.366 20.88C286.366 20.5333 286.429 20.21 286.556 19.91C286.689 19.61 286.869 19.3467 287.096 19.12C287.323 18.8933 287.589 18.7167 287.896 18.59C288.203 18.4567 288.533 18.39 288.886 18.39C289.239 18.39 289.569 18.4567 289.876 18.59C290.183 18.7167 290.449 18.8933 290.676 19.12C290.903 19.3467 291.079 19.61 291.206 19.91C291.339 20.21 291.406 20.5333 291.406 20.88C291.406 21.2267 291.339 21.5533 291.206 21.86C291.079 22.16 290.903 22.4233 290.676 22.65C290.449 22.87 290.183 23.0467 289.876 23.18C289.569 23.3067 289.239 23.37 288.886 23.37C288.533 23.37 288.203 23.3067 287.896 23.18C287.589 23.0467 287.323 22.87 287.096 22.65C286.869 22.4233 286.689 22.16 286.556 21.86C286.429 21.5533 286.366 21.2267 286.366 20.88ZM292.534 18.51H293.434V19.24H293.454C293.567 18.9867 293.764 18.7833 294.044 18.63C294.324 18.47 294.647 18.39 295.014 18.39C295.24 18.39 295.457 18.4267 295.664 18.5C295.877 18.5667 296.06 18.6733 296.214 18.82C296.374 18.9667 296.5 19.1567 296.594 19.39C296.687 19.6167 296.734 19.8867 296.734 20.2V23.25H295.834V20.45C295.834 20.23 295.804 20.0433 295.744 19.89C295.684 19.73 295.604 19.6033 295.504 19.51C295.404 19.41 295.287 19.34 295.154 19.3C295.027 19.2533 294.894 19.23 294.754 19.23C294.567 19.23 294.394 19.26 294.234 19.32C294.074 19.38 293.934 19.4767 293.814 19.61C293.694 19.7367 293.6 19.9 293.534 20.1C293.467 20.3 293.434 20.5367 293.434 20.81V23.25H292.534V18.51Z" fill="white"/>
<path d="M238.264 29.922H242.072C242.616 29.922 243.139 29.9753 243.64 30.082C244.152 30.1887 244.6 30.37 244.984 30.626C245.368 30.8713 245.672 31.2073 245.896 31.634C246.131 32.05 246.248 32.5727 246.248 33.202C246.248 33.9167 246.125 34.4927 245.88 34.93C245.635 35.3673 245.304 35.7087 244.888 35.954C244.472 36.1887 243.987 36.3487 243.432 36.434C242.888 36.5193 242.317 36.562 241.72 36.562H240.28V41.25H238.264V29.922ZM241.496 34.834C241.784 34.834 242.083 34.8233 242.392 34.802C242.701 34.7807 242.984 34.7167 243.24 34.61C243.507 34.5033 243.72 34.3433 243.88 34.13C244.051 33.9167 244.136 33.618 244.136 33.234C244.136 32.882 244.061 32.6047 243.912 32.402C243.763 32.1887 243.571 32.0287 243.336 31.922C243.101 31.8047 242.84 31.73 242.552 31.698C242.264 31.666 241.987 31.65 241.72 31.65H240.28V34.834H241.496ZM247.901 29.154H249.821V41.25H247.901V29.154ZM256.826 40.194H256.778C256.5 40.6313 256.148 40.9513 255.722 41.154C255.295 41.346 254.826 41.442 254.314 41.442C253.962 41.442 253.615 41.394 253.274 41.298C252.943 41.202 252.644 41.058 252.378 40.866C252.122 40.674 251.914 40.434 251.754 40.146C251.594 39.858 251.514 39.522 251.514 39.138C251.514 38.722 251.588 38.37 251.738 38.082C251.887 37.7833 252.084 37.538 252.33 37.346C252.586 37.1433 252.879 36.9833 253.21 36.866C253.54 36.7487 253.882 36.6633 254.234 36.61C254.596 36.546 254.959 36.5087 255.322 36.498C255.684 36.4767 256.026 36.466 256.346 36.466H256.826V36.258C256.826 35.778 256.66 35.4207 256.33 35.186C255.999 34.9407 255.578 34.818 255.066 34.818C254.66 34.818 254.282 34.8927 253.93 35.042C253.578 35.1807 253.274 35.3727 253.018 35.618L252.01 34.61C252.436 34.1727 252.932 33.858 253.498 33.666C254.074 33.474 254.666 33.378 255.274 33.378C255.818 33.378 256.276 33.442 256.65 33.57C257.023 33.6873 257.332 33.842 257.578 34.034C257.823 34.226 258.01 34.45 258.138 34.706C258.276 34.9513 258.372 35.202 258.426 35.458C258.49 35.714 258.527 35.9647 258.538 36.21C258.548 36.4447 258.554 36.6527 258.554 36.834V41.25H256.826V40.194ZM256.714 37.81H256.314C256.047 37.81 255.748 37.8207 255.418 37.842C255.087 37.8633 254.772 37.9167 254.474 38.002C254.186 38.0767 253.94 38.194 253.738 38.354C253.535 38.5033 253.434 38.7167 253.434 38.994C253.434 39.1753 253.471 39.33 253.546 39.458C253.631 39.5753 253.738 39.6767 253.866 39.762C253.994 39.8473 254.138 39.9113 254.298 39.954C254.458 39.986 254.618 40.002 254.778 40.002C255.439 40.002 255.924 39.8473 256.234 39.538C256.554 39.218 256.714 38.786 256.714 38.242V37.81ZM259.579 33.57H261.691L263.835 38.898H263.867L265.787 33.57H267.787L264.155 42.898C264.017 43.2607 263.862 43.5753 263.691 43.842C263.531 44.1193 263.339 44.3487 263.115 44.53C262.891 44.722 262.625 44.8607 262.315 44.946C262.017 45.042 261.654 45.09 261.227 45.09C260.726 45.09 260.235 45.026 259.755 44.898L259.995 43.17C260.145 43.2233 260.299 43.266 260.459 43.298C260.63 43.3407 260.801 43.362 260.971 43.362C261.206 43.362 261.403 43.3407 261.563 43.298C261.723 43.2553 261.857 43.186 261.963 43.09C262.081 43.0047 262.177 42.8873 262.251 42.738C262.326 42.5993 262.406 42.4287 262.491 42.226L262.859 41.314L259.579 33.57ZM273.012 35.698C272.639 35.1753 272.137 34.914 271.508 34.914C271.252 34.914 271.001 34.978 270.756 35.106C270.511 35.234 270.388 35.442 270.388 35.73C270.388 35.9647 270.489 36.1353 270.692 36.242C270.895 36.3487 271.151 36.4393 271.46 36.514C271.769 36.5887 272.1 36.6687 272.452 36.754C272.815 36.8287 273.151 36.9513 273.46 37.122C273.769 37.282 274.025 37.506 274.228 37.794C274.431 38.082 274.532 38.4767 274.532 38.978C274.532 39.4367 274.431 39.826 274.228 40.146C274.036 40.4553 273.78 40.706 273.46 40.898C273.151 41.09 272.799 41.2287 272.404 41.314C272.009 41.3993 271.615 41.442 271.22 41.442C270.623 41.442 270.073 41.3567 269.572 41.186C269.071 41.0153 268.623 40.706 268.228 40.258L269.508 39.058C269.753 39.3353 270.015 39.5647 270.292 39.746C270.58 39.9167 270.927 40.002 271.332 40.002C271.471 40.002 271.615 39.986 271.764 39.954C271.913 39.922 272.052 39.8687 272.18 39.794C272.308 39.7193 272.409 39.6287 272.484 39.522C272.569 39.4047 272.612 39.2713 272.612 39.122C272.612 38.8553 272.511 38.658 272.308 38.53C272.105 38.402 271.849 38.3007 271.54 38.226C271.231 38.1407 270.895 38.066 270.532 38.002C270.18 37.9273 269.849 37.8153 269.54 37.666C269.231 37.506 268.975 37.2873 268.772 37.01C268.569 36.7327 268.468 36.3487 268.468 35.858C268.468 35.4313 268.553 35.0633 268.724 34.754C268.905 34.434 269.14 34.1727 269.428 33.97C269.716 33.7673 270.047 33.618 270.42 33.522C270.793 33.426 271.172 33.378 271.556 33.378C272.068 33.378 272.575 33.4687 273.076 33.65C273.577 33.8207 273.983 34.1193 274.292 34.546L273.012 35.698ZM275.13 35.202V33.57H276.714V31.346H278.634V33.57H280.746V35.202H278.634V38.562C278.634 38.946 278.703 39.25 278.842 39.474C278.991 39.698 279.279 39.81 279.706 39.81C279.876 39.81 280.063 39.794 280.266 39.762C280.468 39.7193 280.628 39.6553 280.746 39.57V41.186C280.543 41.282 280.292 41.346 279.994 41.378C279.706 41.4207 279.45 41.442 279.226 41.442C278.714 41.442 278.292 41.3833 277.962 41.266C277.642 41.1593 277.386 40.994 277.194 40.77C277.012 40.5353 276.884 40.2473 276.81 39.906C276.746 39.5647 276.714 39.17 276.714 38.722V35.202H275.13ZM281.86 37.41C281.86 36.802 281.967 36.2527 282.18 35.762C282.404 35.2607 282.703 34.834 283.076 34.482C283.45 34.13 283.892 33.858 284.404 33.666C284.916 33.474 285.46 33.378 286.036 33.378C286.612 33.378 287.156 33.474 287.668 33.666C288.18 33.858 288.623 34.13 288.996 34.482C289.37 34.834 289.663 35.2607 289.876 35.762C290.1 36.2527 290.212 36.802 290.212 37.41C290.212 38.018 290.1 38.5727 289.876 39.074C289.663 39.5647 289.37 39.986 288.996 40.338C288.623 40.69 288.18 40.962 287.668 41.154C287.156 41.346 286.612 41.442 286.036 41.442C285.46 41.442 284.916 41.346 284.404 41.154C283.892 40.962 283.45 40.69 283.076 40.338C282.703 39.986 282.404 39.5647 282.18 39.074C281.967 38.5727 281.86 38.018 281.86 37.41ZM283.78 37.41C283.78 37.7087 283.828 37.9967 283.924 38.274C284.031 38.5513 284.18 38.7967 284.372 39.01C284.575 39.2233 284.815 39.394 285.092 39.522C285.37 39.65 285.684 39.714 286.036 39.714C286.388 39.714 286.703 39.65 286.98 39.522C287.258 39.394 287.492 39.2233 287.684 39.01C287.887 38.7967 288.036 38.5513 288.132 38.274C288.239 37.9967 288.292 37.7087 288.292 37.41C288.292 37.1113 288.239 36.8233 288.132 36.546C288.036 36.2687 287.887 36.0233 287.684 35.81C287.492 35.5967 287.258 35.426 286.98 35.298C286.703 35.17 286.388 35.106 286.036 35.106C285.684 35.106 285.37 35.17 285.092 35.298C284.815 35.426 284.575 35.5967 284.372 35.81C284.18 36.0233 284.031 36.2687 283.924 36.546C283.828 36.8233 283.78 37.1113 283.78 37.41ZM292.01 33.57H293.93V34.786H293.962C294.175 34.338 294.479 33.9913 294.874 33.746C295.269 33.5007 295.722 33.378 296.234 33.378C296.351 33.378 296.463 33.3887 296.57 33.41C296.687 33.4313 296.805 33.458 296.922 33.49V35.346C296.762 35.3033 296.602 35.2713 296.442 35.25C296.293 35.218 296.143 35.202 295.994 35.202C295.546 35.202 295.183 35.2873 294.906 35.458C294.639 35.618 294.431 35.8047 294.282 36.018C294.143 36.2313 294.047 36.4447 293.994 36.658C293.951 36.8713 293.93 37.0313 293.93 37.138V41.25H292.01V33.57ZM299.483 38.082C299.547 38.658 299.771 39.106 300.155 39.426C300.539 39.746 301.003 39.906 301.547 39.906C302.027 39.906 302.427 39.81 302.747 39.618C303.078 39.4153 303.366 39.1647 303.611 38.866L304.987 39.906C304.539 40.4607 304.038 40.8553 303.483 41.09C302.929 41.3247 302.347 41.442 301.739 41.442C301.163 41.442 300.619 41.346 300.107 41.154C299.595 40.962 299.153 40.69 298.779 40.338C298.406 39.986 298.107 39.5647 297.883 39.074C297.67 38.5727 297.563 38.018 297.563 37.41C297.563 36.802 297.67 36.2527 297.883 35.762C298.107 35.2607 298.406 34.834 298.779 34.482C299.153 34.13 299.595 33.858 300.107 33.666C300.619 33.474 301.163 33.378 301.739 33.378C302.273 33.378 302.758 33.474 303.195 33.666C303.643 33.8473 304.022 34.114 304.331 34.466C304.651 34.818 304.897 35.2553 305.067 35.778C305.249 36.29 305.339 36.882 305.339 37.554V38.082H299.483ZM303.419 36.642C303.409 36.0767 303.233 35.634 302.891 35.314C302.55 34.9833 302.075 34.818 301.467 34.818C300.891 34.818 300.433 34.9833 300.091 35.314C299.761 35.6447 299.558 36.0873 299.483 36.642H303.419Z" fill="white"/>
</svg>
