<svg width="74" height="32" viewBox="0 0 74 32" fill="none" xmlns="http://www.w3.org/2000/svg">
<g filter="url(#filter0_d_8501_763)">
<rect x="3.34167" y="0.0259399" width="67.5393" height="24.8796" rx="12.4398" fill="#545358" shape-rendering="crispEdges"/>
<path d="M25.0898 10.594C25.0898 9.48071 23.7071 8.57825 22.0014 8.57825C20.2958 8.57825 18.9131 9.48071 18.9131 10.594C18.9131 11.7072 19.7554 12.3217 22.0014 12.3217C24.2475 12.3217 25.3705 12.8976 25.3705 14.3374C25.3705 15.7772 23.8621 16.3531 22.0014 16.3531C20.1407 16.3531 18.6323 15.4507 18.6323 14.3374" stroke="white" stroke-width="0.777487" stroke-linecap="round"/>
<path d="M22.2606 7.54163V8.42796M22.2606 17.3898V16.5035" stroke="white" stroke-width="0.777487" stroke-linecap="round" stroke-linejoin="round"/>
<path d="M38.0339 15.8987H37.5487V15.0311C36.5504 14.9471 35.6361 14.4713 35.2722 13.4263L35.7481 13.0158C36.0093 13.9488 36.8023 14.3686 37.5487 14.4619V12.0922L37.1755 12.0082C36.2985 11.8029 35.4588 11.4204 35.4588 10.3288C35.4588 9.21858 36.4198 8.6308 37.4741 8.6308C37.5021 8.6308 37.5207 8.6308 37.5487 8.6308V7.78178H38.0339V8.67744C38.9016 8.81739 39.5453 9.30254 39.8439 10.0863L39.3307 10.4968C39.1068 9.81569 38.6496 9.4145 38.0339 9.27455V11.5977L38.1085 11.6163C39.0695 11.8403 39.9372 12.2135 39.9372 13.361C39.9372 14.406 39.1068 14.9937 38.0339 15.0497V15.8987ZM37.3715 11.4391L37.5487 11.4857V9.20925C37.5207 9.20925 37.4927 9.20925 37.4648 9.20925C36.709 9.20925 36.1026 9.6011 36.1026 10.2822C36.1026 10.9633 36.5598 11.2432 37.3715 11.4391ZM39.3214 13.3797C39.3214 12.6893 38.8736 12.4187 38.0339 12.2041V14.4806C38.7336 14.434 39.3214 14.1167 39.3214 13.3797ZM43.4589 15.0591C41.8728 15.0591 41.1264 14.2194 41.1264 12.3721V8.71476H41.7422V12.3721C41.7422 13.8555 42.2367 14.4806 43.4682 14.4806C44.7091 14.4806 45.1942 13.8555 45.1942 12.3721V8.71476H45.81V12.3721C45.81 14.2194 45.0823 15.0591 43.4589 15.0591ZM49.4011 15.0497C48.2722 15.0497 47.19 14.5832 46.7888 13.4263L47.2646 13.0158C47.5631 14.0888 48.5801 14.4806 49.4011 14.4806C50.1662 14.4806 50.8379 14.1727 50.8379 13.3797C50.8379 12.6426 50.3248 12.3814 49.3731 12.1575L48.6921 12.0082C47.8151 11.8029 46.9754 11.4204 46.9754 10.3288C46.9754 9.21858 47.9363 8.6308 48.9906 8.6308C50.1382 8.6308 50.9965 9.14394 51.3604 10.0863L50.8473 10.4968C50.558 9.61976 49.8863 9.20925 48.9813 9.20925C48.2256 9.20925 47.6191 9.6011 47.6191 10.2822C47.6191 10.9633 48.0763 11.2432 48.888 11.4391L49.625 11.6163C50.586 11.8403 51.4537 12.2135 51.4537 13.361C51.4537 14.4526 50.5487 15.0497 49.4011 15.0497ZM54.6524 14.9658H52.5905V8.71476H54.6524C56.621 8.71476 57.5913 9.86233 57.5913 11.8403C57.5913 13.8182 56.621 14.9658 54.6524 14.9658ZM54.5684 9.25589H53.2062V14.4246H54.5684C56.1172 14.4246 56.9662 13.6503 56.9662 11.8403C56.9662 10.0303 56.1172 9.25589 54.5684 9.25589Z" fill="white"/>
<path d="M38.0339 15.8987H37.5487V15.0311C36.5504 14.9471 35.6361 14.4713 35.2722 13.4263L35.7481 13.0158C36.0093 13.9488 36.8023 14.3686 37.5487 14.4619V12.0922L37.1755 12.0082C36.2985 11.8029 35.4588 11.4204 35.4588 10.3288C35.4588 9.21858 36.4198 8.6308 37.4741 8.6308C37.5021 8.6308 37.5207 8.6308 37.5487 8.6308V7.78178H38.0339V8.67744C38.9016 8.81739 39.5453 9.30254 39.8439 10.0863L39.3307 10.4968C39.1068 9.81569 38.6496 9.4145 38.0339 9.27455V11.5977L38.1085 11.6163C39.0695 11.8403 39.9372 12.2135 39.9372 13.361C39.9372 14.406 39.1068 14.9937 38.0339 15.0497V15.8987ZM37.3715 11.4391L37.5487 11.4857V9.20925C37.5207 9.20925 37.4927 9.20925 37.4648 9.20925C36.709 9.20925 36.1026 9.6011 36.1026 10.2822C36.1026 10.9633 36.5598 11.2432 37.3715 11.4391ZM39.3214 13.3797C39.3214 12.6893 38.8736 12.4187 38.0339 12.2041V14.4806C38.7336 14.434 39.3214 14.1167 39.3214 13.3797ZM43.4589 15.0591C41.8728 15.0591 41.1264 14.2194 41.1264 12.3721V8.71476H41.7422V12.3721C41.7422 13.8555 42.2367 14.4806 43.4682 14.4806C44.7091 14.4806 45.1942 13.8555 45.1942 12.3721V8.71476H45.81V12.3721C45.81 14.2194 45.0823 15.0591 43.4589 15.0591ZM49.4011 15.0497C48.2722 15.0497 47.19 14.5832 46.7888 13.4263L47.2646 13.0158C47.5631 14.0888 48.5801 14.4806 49.4011 14.4806C50.1662 14.4806 50.8379 14.1727 50.8379 13.3797C50.8379 12.6426 50.3248 12.3814 49.3731 12.1575L48.6921 12.0082C47.8151 11.8029 46.9754 11.4204 46.9754 10.3288C46.9754 9.21858 47.9363 8.6308 48.9906 8.6308C50.1382 8.6308 50.9965 9.14394 51.3604 10.0863L50.8473 10.4968C50.558 9.61976 49.8863 9.20925 48.9813 9.20925C48.2256 9.20925 47.6191 9.6011 47.6191 10.2822C47.6191 10.9633 48.0763 11.2432 48.888 11.4391L49.625 11.6163C50.586 11.8403 51.4537 12.2135 51.4537 13.361C51.4537 14.4526 50.5487 15.0497 49.4011 15.0497ZM54.6524 14.9658H52.5905V8.71476H54.6524C56.621 8.71476 57.5913 9.86233 57.5913 11.8403C57.5913 13.8182 56.621 14.9658 54.6524 14.9658ZM54.5684 9.25589H53.2062V14.4246H54.5684C56.1172 14.4246 56.9662 13.6503 56.9662 11.8403C56.9662 10.0303 56.1172 9.25589 54.5684 9.25589Z" fill="white"/>
<path d="M38.0339 15.8987H37.5487V15.0311C36.5504 14.9471 35.6361 14.4713 35.2722 13.4263L35.7481 13.0158C36.0093 13.9488 36.8023 14.3686 37.5487 14.4619V12.0922L37.1755 12.0082C36.2985 11.8029 35.4588 11.4204 35.4588 10.3288C35.4588 9.21858 36.4198 8.6308 37.4741 8.6308C37.5021 8.6308 37.5207 8.6308 37.5487 8.6308V7.78178H38.0339V8.67744C38.9016 8.81739 39.5453 9.30254 39.8439 10.0863L39.3307 10.4968C39.1068 9.81569 38.6496 9.4145 38.0339 9.27455V11.5977L38.1085 11.6163C39.0695 11.8403 39.9372 12.2135 39.9372 13.361C39.9372 14.406 39.1068 14.9937 38.0339 15.0497V15.8987ZM37.3715 11.4391L37.5487 11.4857V9.20925C37.5207 9.20925 37.4927 9.20925 37.4648 9.20925C36.709 9.20925 36.1026 9.6011 36.1026 10.2822C36.1026 10.9633 36.5598 11.2432 37.3715 11.4391ZM39.3214 13.3797C39.3214 12.6893 38.8736 12.4187 38.0339 12.2041V14.4806C38.7336 14.434 39.3214 14.1167 39.3214 13.3797ZM43.4589 15.0591C41.8728 15.0591 41.1264 14.2194 41.1264 12.3721V8.71476H41.7422V12.3721C41.7422 13.8555 42.2367 14.4806 43.4682 14.4806C44.7091 14.4806 45.1942 13.8555 45.1942 12.3721V8.71476H45.81V12.3721C45.81 14.2194 45.0823 15.0591 43.4589 15.0591ZM49.4011 15.0497C48.2722 15.0497 47.19 14.5832 46.7888 13.4263L47.2646 13.0158C47.5631 14.0888 48.5801 14.4806 49.4011 14.4806C50.1662 14.4806 50.8379 14.1727 50.8379 13.3797C50.8379 12.6426 50.3248 12.3814 49.3731 12.1575L48.6921 12.0082C47.8151 11.8029 46.9754 11.4204 46.9754 10.3288C46.9754 9.21858 47.9363 8.6308 48.9906 8.6308C50.1382 8.6308 50.9965 9.14394 51.3604 10.0863L50.8473 10.4968C50.558 9.61976 49.8863 9.20925 48.9813 9.20925C48.2256 9.20925 47.6191 9.6011 47.6191 10.2822C47.6191 10.9633 48.0763 11.2432 48.888 11.4391L49.625 11.6163C50.586 11.8403 51.4537 12.2135 51.4537 13.361C51.4537 14.4526 50.5487 15.0497 49.4011 15.0497ZM54.6524 14.9658H52.5905V8.71476H54.6524C56.621 8.71476 57.5913 9.86233 57.5913 11.8403C57.5913 13.8182 56.621 14.9658 54.6524 14.9658ZM54.5684 9.25589H53.2062V14.4246H54.5684C56.1172 14.4246 56.9662 13.6503 56.9662 11.8403C56.9662 10.0303 56.1172 9.25589 54.5684 9.25589Z" fill="white"/>
</g>
<defs>
<filter id="filter0_d_8501_763" x="0.231727" y="0.0259399" width="73.7591" height="31.0995" filterUnits="userSpaceOnUse" color-interpolation-filters="sRGB">
<feFlood flood-opacity="0" result="BackgroundImageFix"/>
<feColorMatrix in="SourceAlpha" type="matrix" values="0 0 0 0 0 0 0 0 0 0 0 0 0 0 0 0 0 0 127 0" result="hardAlpha"/>
<feOffset dy="3.10995"/>
<feGaussianBlur stdDeviation="1.55497"/>
<feComposite in2="hardAlpha" operator="out"/>
<feColorMatrix type="matrix" values="0 0 0 0 0 0 0 0 0 0 0 0 0 0 0 0 0 0 0.08 0"/>
<feBlend mode="normal" in2="BackgroundImageFix" result="effect1_dropShadow_8501_763"/>
<feBlend mode="normal" in="SourceGraphic" in2="effect1_dropShadow_8501_763" result="shape"/>
</filter>
</defs>
</svg>
