<svg width="28" height="28" viewBox="0 0 28 28" fill="none" xmlns="http://www.w3.org/2000/svg">
<g opacity="0.78">
<path d="M19.914 27.6148H7.37648C3.31831 27.6148 0.0233765 24.3204 0.0233765 20.2628V7.73668C0.0233765 3.67917 3.31831 0.384766 7.37648 0.384766H19.914C23.9722 0.384766 27.2671 3.67917 27.2671 7.73668V20.2722C27.2671 24.3297 23.9722 27.6148 19.914 27.6148Z" fill="#7AC52D"/>
<path opacity="0.78" d="M3.99777 20.2444V12.8088C3.99777 12.4179 4.24908 12.0736 4.61208 11.9526L7.84186 10.8638V14.8189C7.84186 15.3121 8.14902 15.7495 8.60509 15.9263C9.71271 16.3451 11.6766 17.0896 12.2072 17.2664C12.8029 17.4619 12.7284 18.1412 12.6633 18.4111C12.626 18.4297 12.5981 18.4483 12.5609 18.467L5.20778 21.1006C4.74239 21.2681 4.22116 21.0262 4.05362 20.5609C4.01639 20.4585 3.99777 20.3561 3.99777 20.2444Z" fill="white"/>
<path opacity="0.53" d="M7.84186 10.8642V8.02534C7.84186 7.3738 8.3724 6.84326 9.02394 6.84326C9.16355 6.84326 9.29386 6.87118 9.42417 6.91772L12.6819 8.0905L12.7377 8.20219C12.9146 8.68619 12.6726 9.21673 12.1886 9.39358C12.1793 9.39358 12.1699 9.40289 12.1513 9.40289L7.84186 10.8642Z" fill="white"/>
<path d="M12.6819 8.09033L12.7377 8.202C12.9146 8.68593 12.6726 9.21638 12.1886 9.3932C12.1793 9.3932 12.1699 9.40251 12.1513 9.40251L7.84186 10.8636V14.8187C7.84186 15.312 8.14901 15.7493 8.60509 15.9262C9.71271 16.3449 11.6766 17.0894 12.2072 17.2663C12.8029 17.4617 12.7284 18.141 12.6633 18.4109C13.1473 18.1317 13.4544 17.6385 13.4916 17.0801V9.33736C13.4916 8.98373 13.352 8.6487 13.1193 8.38813C12.9983 8.25784 12.8494 8.14617 12.6819 8.09033Z" fill="white"/>
<path opacity="0.78" d="M23.2927 7.75538V15.1911C23.2927 15.5819 23.0507 15.9262 22.6784 16.0472L19.4486 17.1361V13.1809C19.4486 12.6877 19.1414 12.2503 18.6854 12.0735C17.5871 11.6547 15.6138 10.9102 15.0833 10.7334C14.4876 10.5379 14.562 9.85859 14.6272 9.58871C14.6644 9.5701 14.6924 9.55149 14.7296 9.53287L22.0827 6.89921C22.5574 6.7317 23.0693 6.97366 23.2368 7.44828C23.2741 7.54134 23.2927 7.65302 23.2927 7.75538Z" fill="white"/>
<path d="M13.7895 11.9805V18.4483C13.7802 17.3129 13.7895 13.7673 13.7895 11.9805Z" fill="white"/>
<path opacity="0.53" d="M19.4486 17.1357V19.9746C19.4486 20.6261 18.918 21.1567 18.2665 21.1567C18.1269 21.1567 17.9966 21.1288 17.8663 21.0822L14.6179 19.9094L14.562 19.7977C14.3852 19.3137 14.6272 18.7832 15.1112 18.6064C15.1205 18.6064 15.1298 18.5971 15.1484 18.5971L19.4486 17.1357Z" fill="white"/>
<path d="M14.6179 19.909L14.562 19.7973C14.3852 19.3134 14.6272 18.7829 15.1112 18.6061C15.1205 18.6061 15.1298 18.5968 15.1484 18.5968L19.4579 17.1357V13.1806C19.4579 12.6873 19.1507 12.25 18.6947 12.0731C17.5963 11.6544 15.6231 10.9099 15.0926 10.733C14.4969 10.5376 14.5713 9.85826 14.6365 9.58838C14.1525 9.86757 13.8453 10.3701 13.8081 10.9192V18.6526C13.8081 19.0063 13.9384 19.3413 14.1804 19.6019C14.2921 19.7415 14.4503 19.8438 14.6179 19.909Z" fill="white"/>
</g>
</svg>
