<svg width="339" height="339" viewBox="0 0 339 339" fill="none" xmlns="http://www.w3.org/2000/svg">
<g clip-path="url(#clip0_3940_11438)">
<mask id="mask0_3940_11438" style="mask-type:luminance" maskUnits="userSpaceOnUse" x="20" y="20" width="299" height="299">
<path d="M113.219 20.7217H102.668V31.2723H113.219V20.7217Z" fill="white"/>
<path d="M123.462 20.7217H112.912V31.2723H123.462V20.7217Z" fill="white"/>
<path d="M143.949 20.7217H133.398V31.2723H143.949V20.7217Z" fill="white"/>
<path d="M174.679 20.7217H164.128V31.2723H174.679V20.7217Z" fill="white"/>
<path d="M184.922 20.7217H174.372V31.2723H184.922V20.7217Z" fill="white"/>
<path d="M195.166 20.7217H184.615V31.2723H195.166V20.7217Z" fill="white"/>
<path d="M205.409 20.7217H194.858V31.2723H205.409V20.7217Z" fill="white"/>
<path d="M215.652 20.7217H205.102V31.2723H215.652V20.7217Z" fill="white"/>
<path d="M113.219 30.9648H102.668V41.5155H113.219V30.9648Z" fill="white"/>
<path d="M123.462 30.9648H112.912V41.5155H123.462V30.9648Z" fill="white"/>
<path d="M133.706 30.9648H123.155V41.5155H133.706V30.9648Z" fill="white"/>
<path d="M143.949 30.9648H133.398V41.5155H143.949V30.9648Z" fill="white"/>
<path d="M154.192 30.9648H143.642V41.5155H154.192V30.9648Z" fill="white"/>
<path d="M174.679 30.9648H164.128V41.5155H174.679V30.9648Z" fill="white"/>
<path d="M195.166 30.9648H184.615V41.5155H195.166V30.9648Z" fill="white"/>
<path d="M205.409 30.9648H194.858V41.5155H205.409V30.9648Z" fill="white"/>
<path d="M113.219 41.208H102.668V51.7586H113.219V41.208Z" fill="white"/>
<path d="M143.949 41.208H133.398V51.7586H143.949V41.208Z" fill="white"/>
<path d="M154.192 41.208H143.642V51.7586H154.192V41.208Z" fill="white"/>
<path d="M164.436 41.208H153.885V51.7586H164.436V41.208Z" fill="white"/>
<path d="M174.679 41.208H164.128V51.7586H174.679V41.208Z" fill="white"/>
<path d="M215.652 41.208H205.102V51.7586H215.652V41.208Z" fill="white"/>
<path d="M225.896 41.208H215.345V51.7586H225.896V41.208Z" fill="white"/>
<path d="M133.706 51.4512H123.155V62.0018H133.706V51.4512Z" fill="white"/>
<path d="M164.436 51.4512H153.885V62.0018H164.436V51.4512Z" fill="white"/>
<path d="M184.922 51.4512H174.372V62.0018H184.922V51.4512Z" fill="white"/>
<path d="M195.166 51.4512H184.615V62.0018H195.166V51.4512Z" fill="white"/>
<path d="M205.409 51.4512H194.858V62.0018H205.409V51.4512Z" fill="white"/>
<path d="M133.706 61.6953H123.155V72.2459H133.706V61.6953Z" fill="white"/>
<path d="M143.949 61.6953H133.398V72.2459H143.949V61.6953Z" fill="white"/>
<path d="M174.679 61.6953H164.128V72.2459H174.679V61.6953Z" fill="white"/>
<path d="M205.409 61.6953H194.858V72.2459H205.409V61.6953Z" fill="white"/>
<path d="M215.652 61.6953H205.102V72.2459H215.652V61.6953Z" fill="white"/>
<path d="M225.896 61.6953H215.345V72.2459H225.896V61.6953Z" fill="white"/>
<path d="M113.219 71.9385H102.668V82.4891H113.219V71.9385Z" fill="white"/>
<path d="M123.462 71.9385H112.912V82.4891H123.462V71.9385Z" fill="white"/>
<path d="M174.679 71.9385H164.128V82.4891H174.679V71.9385Z" fill="white"/>
<path d="M195.166 71.9385H184.615V82.4891H195.166V71.9385Z" fill="white"/>
<path d="M205.409 71.9385H194.858V82.4891H205.409V71.9385Z" fill="white"/>
<path d="M113.219 82.1816H102.668V92.7323H113.219V82.1816Z" fill="white"/>
<path d="M133.706 82.1816H123.155V92.7323H133.706V82.1816Z" fill="white"/>
<path d="M154.192 82.1816H143.642V92.7323H154.192V82.1816Z" fill="white"/>
<path d="M174.679 82.1816H164.128V92.7323H174.679V82.1816Z" fill="white"/>
<path d="M195.166 82.1816H184.615V92.7323H195.166V82.1816Z" fill="white"/>
<path d="M215.652 82.1816H205.102V92.7323H215.652V82.1816Z" fill="white"/>
<path d="M236.139 82.1816H225.588V92.7323H236.139V82.1816Z" fill="white"/>
<path d="M113.219 92.4248H102.668V102.975H113.219V92.4248Z" fill="white"/>
<path d="M123.462 92.4248H112.912V102.975H123.462V92.4248Z" fill="white"/>
<path d="M133.706 92.4248H123.155V102.975H133.706V92.4248Z" fill="white"/>
<path d="M174.679 92.4248H164.128V102.975H174.679V92.4248Z" fill="white"/>
<path d="M195.166 92.4248H184.615V102.975H195.166V92.4248Z" fill="white"/>
<path d="M205.409 92.4248H194.858V102.975H205.409V92.4248Z" fill="white"/>
<path d="M215.652 92.4248H205.102V102.975H215.652V92.4248Z" fill="white"/>
<path d="M225.896 92.4248H215.345V102.975H225.896V92.4248Z" fill="white"/>
<path d="M51.759 102.668H41.2084V113.219H51.759V102.668Z" fill="white"/>
<path d="M62.0023 102.668H51.4517V113.219H62.0023V102.668Z" fill="white"/>
<path d="M72.2456 102.668H61.695V113.219H72.2456V102.668Z" fill="white"/>
<path d="M92.7323 102.668H82.1817V113.219H92.7323V102.668Z" fill="white"/>
<path d="M113.219 102.668H102.668V113.219H113.219V102.668Z" fill="white"/>
<path d="M143.949 102.668H133.398V113.219H143.949V102.668Z" fill="white"/>
<path d="M164.436 102.668H153.885V113.219H164.436V102.668Z" fill="white"/>
<path d="M195.166 102.668H184.615V113.219H195.166V102.668Z" fill="white"/>
<path d="M236.139 102.668H225.588V113.219H236.139V102.668Z" fill="white"/>
<path d="M246.382 102.668H235.832V113.219H246.382V102.668Z" fill="white"/>
<path d="M256.626 102.668H246.075V113.219H256.626V102.668Z" fill="white"/>
<path d="M266.869 102.668H256.318V113.219H266.869V102.668Z" fill="white"/>
<path d="M297.599 102.668H287.048V113.219H297.599V102.668Z" fill="white"/>
<path d="M307.842 102.668H297.292V113.219H307.842V102.668Z" fill="white"/>
<path d="M318.086 102.668H307.535V113.219H318.086V102.668Z" fill="white"/>
<path d="M31.2723 112.911H20.7217V123.462H31.2723V112.911Z" fill="white"/>
<path d="M82.489 112.911H71.9384V123.462H82.489V112.911Z" fill="white"/>
<path d="M102.976 112.911H92.425V123.462H102.976V112.911Z" fill="white"/>
<path d="M133.706 112.911H123.155V123.462H133.706V112.911Z" fill="white"/>
<path d="M143.949 112.911H133.398V123.462H143.949V112.911Z" fill="white"/>
<path d="M174.679 112.911H164.128V123.462H174.679V112.911Z" fill="white"/>
<path d="M184.922 112.911H174.372V123.462H184.922V112.911Z" fill="white"/>
<path d="M215.652 112.911H205.102V123.462H215.652V112.911Z" fill="white"/>
<path d="M225.896 112.911H215.345V123.462H225.896V112.911Z" fill="white"/>
<path d="M256.626 112.911H246.075V123.462H256.626V112.911Z" fill="white"/>
<path d="M266.869 112.911H256.318V123.462H266.869V112.911Z" fill="white"/>
<path d="M277.112 112.911H266.562V123.462H277.112V112.911Z" fill="white"/>
<path d="M287.356 112.911H276.805V123.462H287.356V112.911Z" fill="white"/>
<path d="M318.086 112.911H307.535V123.462H318.086V112.911Z" fill="white"/>
<path d="M31.2723 123.155H20.7217V133.706H31.2723V123.155Z" fill="white"/>
<path d="M41.5157 123.155H30.965V133.706H41.5157V123.155Z" fill="white"/>
<path d="M82.489 123.155H71.9384V133.706H82.489V123.155Z" fill="white"/>
<path d="M92.7323 123.155H82.1817V133.706H92.7323V123.155Z" fill="white"/>
<path d="M123.462 123.155H112.912V133.706H123.462V123.155Z" fill="white"/>
<path d="M133.706 123.155H123.155V133.706H133.706V123.155Z" fill="white"/>
<path d="M184.922 123.155H174.372V133.706H184.922V123.155Z" fill="white"/>
<path d="M205.409 123.155H194.858V133.706H205.409V123.155Z" fill="white"/>
<path d="M215.652 123.155H205.102V133.706H215.652V123.155Z" fill="white"/>
<path d="M236.139 123.155H225.588V133.706H236.139V123.155Z" fill="white"/>
<path d="M246.382 123.155H235.832V133.706H246.382V123.155Z" fill="white"/>
<path d="M256.626 123.155H246.075V133.706H256.626V123.155Z" fill="white"/>
<path d="M62.0023 133.398H51.4517V143.949H62.0023V133.398Z" fill="white"/>
<path d="M72.2456 133.398H61.695V143.949H72.2456V133.398Z" fill="white"/>
<path d="M102.976 133.398H92.425V143.949H102.976V133.398Z" fill="white"/>
<path d="M113.219 133.398H102.668V143.949H113.219V133.398Z" fill="white"/>
<path d="M123.462 133.398H112.912V143.949H123.462V133.398Z" fill="white"/>
<path d="M133.706 133.398H123.155V143.949H133.706V133.398Z" fill="white"/>
<path d="M143.949 133.398H133.398V143.949H143.949V133.398Z" fill="white"/>
<path d="M164.436 133.398H153.885V143.949H164.436V133.398Z" fill="white"/>
<path d="M184.922 133.398H174.372V143.949H184.922V133.398Z" fill="white"/>
<path d="M205.409 133.398H194.858V143.949H205.409V133.398Z" fill="white"/>
<path d="M215.652 133.398H205.102V143.949H215.652V133.398Z" fill="white"/>
<path d="M225.896 133.398H215.345V143.949H225.896V133.398Z" fill="white"/>
<path d="M236.139 133.398H225.588V143.949H236.139V133.398Z" fill="white"/>
<path d="M246.382 133.398H235.832V143.949H246.382V133.398Z" fill="white"/>
<path d="M256.626 133.398H246.075V143.949H256.626V133.398Z" fill="white"/>
<path d="M277.112 133.398H266.562V143.949H277.112V133.398Z" fill="white"/>
<path d="M287.356 133.398H276.805V143.949H287.356V133.398Z" fill="white"/>
<path d="M307.842 133.398H297.292V143.949H307.842V133.398Z" fill="white"/>
<path d="M41.5157 143.642H30.965V154.192H41.5157V143.642Z" fill="white"/>
<path d="M62.0023 143.642H51.4517V154.192H62.0023V143.642Z" fill="white"/>
<path d="M72.2456 143.642H61.695V154.192H72.2456V143.642Z" fill="white"/>
<path d="M82.489 143.642H71.9384V154.192H82.489V143.642Z" fill="white"/>
<path d="M92.7323 143.642H82.1817V154.192H92.7323V143.642Z" fill="white"/>
<path d="M174.679 143.642H164.128V154.192H174.679V143.642Z" fill="white"/>
<path d="M184.922 143.642H174.372V154.192H184.922V143.642Z" fill="white"/>
<path d="M215.652 143.642H205.102V154.192H215.652V143.642Z" fill="white"/>
<path d="M225.896 143.642H215.345V154.192H225.896V143.642Z" fill="white"/>
<path d="M236.139 143.642H225.588V154.192H236.139V143.642Z" fill="white"/>
<path d="M246.382 143.642H235.832V154.192H246.382V143.642Z" fill="white"/>
<path d="M266.869 143.642H256.318V154.192H266.869V143.642Z" fill="white"/>
<path d="M297.599 143.642H287.048V154.192H297.599V143.642Z" fill="white"/>
<path d="M307.842 143.642H297.292V154.192H307.842V143.642Z" fill="white"/>
<path d="M318.086 143.642H307.535V154.192H318.086V143.642Z" fill="white"/>
<path d="M31.2723 153.885H20.7217V164.435H31.2723V153.885Z" fill="white"/>
<path d="M41.5157 153.885H30.965V164.435H41.5157V153.885Z" fill="white"/>
<path d="M51.759 153.885H41.2084V164.435H51.759V153.885Z" fill="white"/>
<path d="M62.0023 153.885H51.4517V164.435H62.0023V153.885Z" fill="white"/>
<path d="M72.2456 153.885H61.695V164.435H72.2456V153.885Z" fill="white"/>
<path d="M82.489 153.885H71.9384V164.435H82.489V153.885Z" fill="white"/>
<path d="M102.976 153.885H92.425V164.435H102.976V153.885Z" fill="white"/>
<path d="M133.706 153.885H123.155V164.435H133.706V153.885Z" fill="white"/>
<path d="M174.679 153.885H164.128V164.435H174.679V153.885Z" fill="white"/>
<path d="M184.922 153.885H174.372V164.435H184.922V153.885Z" fill="white"/>
<path d="M215.652 153.885H205.102V164.435H215.652V153.885Z" fill="white"/>
<path d="M225.896 153.885H215.345V164.435H225.896V153.885Z" fill="white"/>
<path d="M236.139 153.885H225.588V164.435H236.139V153.885Z" fill="white"/>
<path d="M246.382 153.885H235.832V164.435H246.382V153.885Z" fill="white"/>
<path d="M256.626 153.885H246.075V164.435H256.626V153.885Z" fill="white"/>
<path d="M277.112 153.885H266.562V164.435H277.112V153.885Z" fill="white"/>
<path d="M287.356 153.885H276.805V164.435H287.356V153.885Z" fill="white"/>
<path d="M307.842 153.885H297.292V164.435H307.842V153.885Z" fill="white"/>
<path d="M318.086 153.885H307.535V164.435H318.086V153.885Z" fill="white"/>
<path d="M41.5157 164.128H30.965V174.679H41.5157V164.128Z" fill="white"/>
<path d="M92.7323 164.128H82.1817V174.679H92.7323V164.128Z" fill="white"/>
<path d="M102.976 164.128H92.425V174.679H102.976V164.128Z" fill="white"/>
<path d="M123.462 164.128H112.912V174.679H123.462V164.128Z" fill="white"/>
<path d="M143.949 164.128H133.398V174.679H143.949V164.128Z" fill="white"/>
<path d="M154.192 164.128H143.642V174.679H154.192V164.128Z" fill="white"/>
<path d="M195.166 164.128H184.615V174.679H195.166V164.128Z" fill="white"/>
<path d="M236.139 164.128H225.588V174.679H236.139V164.128Z" fill="white"/>
<path d="M246.382 164.128H235.832V174.679H246.382V164.128Z" fill="white"/>
<path d="M256.626 164.128H246.075V174.679H256.626V164.128Z" fill="white"/>
<path d="M266.869 164.128H256.318V174.679H266.869V164.128Z" fill="white"/>
<path d="M41.5157 174.372H30.965V184.923H41.5157V174.372Z" fill="white"/>
<path d="M51.759 174.372H41.2084V184.923H51.759V174.372Z" fill="white"/>
<path d="M72.2456 174.372H61.695V184.923H72.2456V174.372Z" fill="white"/>
<path d="M82.489 174.372H71.9384V184.923H82.489V174.372Z" fill="white"/>
<path d="M113.219 174.372H102.668V184.923H113.219V174.372Z" fill="white"/>
<path d="M174.679 174.372H164.128V184.923H174.679V174.372Z" fill="white"/>
<path d="M184.922 174.372H174.372V184.923H184.922V174.372Z" fill="white"/>
<path d="M195.166 174.372H184.615V184.923H195.166V174.372Z" fill="white"/>
<path d="M215.652 174.372H205.102V184.923H215.652V174.372Z" fill="white"/>
<path d="M246.382 174.372H235.832V184.923H246.382V174.372Z" fill="white"/>
<path d="M256.626 174.372H246.075V184.923H256.626V174.372Z" fill="white"/>
<path d="M277.112 174.372H266.562V184.923H277.112V174.372Z" fill="white"/>
<path d="M287.356 174.372H276.805V184.923H287.356V174.372Z" fill="white"/>
<path d="M318.086 174.372H307.535V184.923H318.086V174.372Z" fill="white"/>
<path d="M31.2723 184.614H20.7217V195.165H31.2723V184.614Z" fill="white"/>
<path d="M62.0023 184.614H51.4517V195.165H62.0023V184.614Z" fill="white"/>
<path d="M92.7323 184.614H82.1817V195.165H92.7323V184.614Z" fill="white"/>
<path d="M123.462 184.614H112.912V195.165H123.462V184.614Z" fill="white"/>
<path d="M164.436 184.614H153.885V195.165H164.436V184.614Z" fill="white"/>
<path d="M215.652 184.614H205.102V195.165H215.652V184.614Z" fill="white"/>
<path d="M277.112 184.614H266.562V195.165H277.112V184.614Z" fill="white"/>
<path d="M287.356 184.614H276.805V195.165H287.356V184.614Z" fill="white"/>
<path d="M297.599 184.614H287.048V195.165H297.599V184.614Z" fill="white"/>
<path d="M318.086 184.614H307.535V195.165H318.086V184.614Z" fill="white"/>
<path d="M31.2723 194.857H20.7217V205.408H31.2723V194.857Z" fill="white"/>
<path d="M72.2456 194.857H61.695V205.408H72.2456V194.857Z" fill="white"/>
<path d="M82.489 194.857H71.9384V205.408H82.489V194.857Z" fill="white"/>
<path d="M102.976 194.857H92.425V205.408H102.976V194.857Z" fill="white"/>
<path d="M113.219 194.857H102.668V205.408H113.219V194.857Z" fill="white"/>
<path d="M133.706 194.857H123.155V205.408H133.706V194.857Z" fill="white"/>
<path d="M143.949 194.857H133.398V205.408H143.949V194.857Z" fill="white"/>
<path d="M154.192 194.857H143.642V205.408H154.192V194.857Z" fill="white"/>
<path d="M205.409 194.857H194.858V205.408H205.409V194.857Z" fill="white"/>
<path d="M236.139 194.857H225.588V205.408H236.139V194.857Z" fill="white"/>
<path d="M246.382 194.857H235.832V205.408H246.382V194.857Z" fill="white"/>
<path d="M256.626 194.857H246.075V205.408H256.626V194.857Z" fill="white"/>
<path d="M266.869 194.857H256.318V205.408H266.869V194.857Z" fill="white"/>
<path d="M277.112 194.857H266.562V205.408H277.112V194.857Z" fill="white"/>
<path d="M287.356 194.857H276.805V205.408H287.356V194.857Z" fill="white"/>
<path d="M307.842 194.857H297.292V205.408H307.842V194.857Z" fill="white"/>
<path d="M318.086 194.857H307.535V205.408H318.086V194.857Z" fill="white"/>
<path d="M31.2723 205.102H20.7217V215.652H31.2723V205.102Z" fill="white"/>
<path d="M51.759 205.102H41.2084V215.652H51.759V205.102Z" fill="white"/>
<path d="M62.0023 205.102H51.4517V215.652H62.0023V205.102Z" fill="white"/>
<path d="M72.2456 205.102H61.695V215.652H72.2456V205.102Z" fill="white"/>
<path d="M82.489 205.102H71.9384V215.652H82.489V205.102Z" fill="white"/>
<path d="M92.7323 205.102H82.1817V215.652H92.7323V205.102Z" fill="white"/>
<path d="M102.976 205.102H92.425V215.652H102.976V205.102Z" fill="white"/>
<path d="M113.219 205.102H102.668V215.652H113.219V205.102Z" fill="white"/>
<path d="M133.706 205.102H123.155V215.652H133.706V205.102Z" fill="white"/>
<path d="M143.949 205.102H133.398V215.652H143.949V205.102Z" fill="white"/>
<path d="M154.192 205.102H143.642V215.652H154.192V205.102Z" fill="white"/>
<path d="M184.922 205.102H174.372V215.652H184.922V205.102Z" fill="white"/>
<path d="M205.409 205.102H194.858V215.652H205.409V205.102Z" fill="white"/>
<path d="M256.626 205.102H246.075V215.652H256.626V205.102Z" fill="white"/>
<path d="M266.869 205.102H256.318V215.652H266.869V205.102Z" fill="white"/>
<path d="M287.356 205.102H276.805V215.652H287.356V205.102Z" fill="white"/>
<path d="M31.2723 215.345H20.7217V225.895H31.2723V215.345Z" fill="white"/>
<path d="M62.0023 215.345H51.4517V225.895H62.0023V215.345Z" fill="white"/>
<path d="M72.2456 215.345H61.695V225.895H72.2456V215.345Z" fill="white"/>
<path d="M82.489 215.345H71.9384V225.895H82.489V215.345Z" fill="white"/>
<path d="M113.219 215.345H102.668V225.895H113.219V215.345Z" fill="white"/>
<path d="M123.462 215.345H112.912V225.895H123.462V215.345Z" fill="white"/>
<path d="M143.949 215.345H133.398V225.895H143.949V215.345Z" fill="white"/>
<path d="M154.192 215.345H143.642V225.895H154.192V215.345Z" fill="white"/>
<path d="M205.409 215.345H194.858V225.895H205.409V215.345Z" fill="white"/>
<path d="M215.652 215.345H205.102V225.895H215.652V215.345Z" fill="white"/>
<path d="M225.896 215.345H215.345V225.895H225.896V215.345Z" fill="white"/>
<path d="M256.626 215.345H246.075V225.895H256.626V215.345Z" fill="white"/>
<path d="M266.869 215.345H256.318V225.895H266.869V215.345Z" fill="white"/>
<path d="M287.356 215.345H276.805V225.895H287.356V215.345Z" fill="white"/>
<path d="M318.086 215.345H307.535V225.895H318.086V215.345Z" fill="white"/>
<path d="M31.2723 225.589H20.7217V236.139H31.2723V225.589Z" fill="white"/>
<path d="M62.0023 225.589H51.4517V236.139H62.0023V225.589Z" fill="white"/>
<path d="M72.2456 225.589H61.695V236.139H72.2456V225.589Z" fill="white"/>
<path d="M82.489 225.589H71.9384V236.139H82.489V225.589Z" fill="white"/>
<path d="M92.7323 225.589H82.1817V236.139H92.7323V225.589Z" fill="white"/>
<path d="M133.706 225.589H123.155V236.139H133.706V225.589Z" fill="white"/>
<path d="M143.949 225.589H133.398V236.139H143.949V225.589Z" fill="white"/>
<path d="M154.192 225.589H143.642V236.139H154.192V225.589Z" fill="white"/>
<path d="M164.436 225.589H153.885V236.139H164.436V225.589Z" fill="white"/>
<path d="M205.409 225.589H194.858V236.139H205.409V225.589Z" fill="white"/>
<path d="M225.896 225.589H215.345V236.139H225.896V225.589Z" fill="white"/>
<path d="M236.139 225.589H225.588V236.139H236.139V225.589Z" fill="white"/>
<path d="M246.382 225.589H235.832V236.139H246.382V225.589Z" fill="white"/>
<path d="M256.626 225.589H246.075V236.139H256.626V225.589Z" fill="white"/>
<path d="M266.869 225.589H256.318V236.139H266.869V225.589Z" fill="white"/>
<path d="M277.112 225.589H266.562V236.139H277.112V225.589Z" fill="white"/>
<path d="M287.356 225.589H276.805V236.139H287.356V225.589Z" fill="white"/>
<path d="M297.599 225.589H287.048V236.139H297.599V225.589Z" fill="white"/>
<path d="M113.219 235.831H102.668V246.382H113.219V235.831Z" fill="white"/>
<path d="M143.949 235.831H133.398V246.382H143.949V235.831Z" fill="white"/>
<path d="M164.436 235.831H153.885V246.382H164.436V235.831Z" fill="white"/>
<path d="M215.652 235.831H205.102V246.382H215.652V235.831Z" fill="white"/>
<path d="M225.896 235.831H215.345V246.382H225.896V235.831Z" fill="white"/>
<path d="M236.139 235.831H225.588V246.382H236.139V235.831Z" fill="white"/>
<path d="M277.112 235.831H266.562V246.382H277.112V235.831Z" fill="white"/>
<path d="M287.356 235.831H276.805V246.382H287.356V235.831Z" fill="white"/>
<path d="M307.842 235.831H297.292V246.382H307.842V235.831Z" fill="white"/>
<path d="M318.086 235.831H307.535V246.382H318.086V235.831Z" fill="white"/>
<path d="M123.462 246.075H112.912V256.626H123.462V246.075Z" fill="white"/>
<path d="M154.192 246.075H143.642V256.626H154.192V246.075Z" fill="white"/>
<path d="M174.679 246.075H164.128V256.626H174.679V246.075Z" fill="white"/>
<path d="M184.922 246.075H174.372V256.626H184.922V246.075Z" fill="white"/>
<path d="M215.652 246.075H205.102V256.626H215.652V246.075Z" fill="white"/>
<path d="M225.896 246.075H215.345V256.626H225.896V246.075Z" fill="white"/>
<path d="M236.139 246.075H225.588V256.626H236.139V246.075Z" fill="white"/>
<path d="M256.626 246.075H246.075V256.626H256.626V246.075Z" fill="white"/>
<path d="M277.112 246.075H266.562V256.626H277.112V246.075Z" fill="white"/>
<path d="M123.462 256.318H112.912V266.869H123.462V256.318Z" fill="white"/>
<path d="M143.949 256.318H133.398V266.869H143.949V256.318Z" fill="white"/>
<path d="M174.679 256.318H164.128V266.869H174.679V256.318Z" fill="white"/>
<path d="M195.166 256.318H184.615V266.869H195.166V256.318Z" fill="white"/>
<path d="M225.896 256.318H215.345V266.869H225.896V256.318Z" fill="white"/>
<path d="M236.139 256.318H225.588V266.869H236.139V256.318Z" fill="white"/>
<path d="M277.112 256.318H266.562V266.869H277.112V256.318Z" fill="white"/>
<path d="M287.356 256.318H276.805V266.869H287.356V256.318Z" fill="white"/>
<path d="M318.086 256.318H307.535V266.869H318.086V256.318Z" fill="white"/>
<path d="M113.219 266.561H102.668V277.111H113.219V266.561Z" fill="white"/>
<path d="M123.462 266.561H112.912V277.111H123.462V266.561Z" fill="white"/>
<path d="M133.706 266.561H123.155V277.111H133.706V266.561Z" fill="white"/>
<path d="M195.166 266.561H184.615V277.111H195.166V266.561Z" fill="white"/>
<path d="M236.139 266.561H225.588V277.111H236.139V266.561Z" fill="white"/>
<path d="M246.382 266.561H235.832V277.111H246.382V266.561Z" fill="white"/>
<path d="M256.626 266.561H246.075V277.111H256.626V266.561Z" fill="white"/>
<path d="M266.869 266.561H256.318V277.111H266.869V266.561Z" fill="white"/>
<path d="M277.112 266.561H266.562V277.111H277.112V266.561Z" fill="white"/>
<path d="M287.356 266.561H276.805V277.111H287.356V266.561Z" fill="white"/>
<path d="M297.599 266.561H287.048V277.111H297.599V266.561Z" fill="white"/>
<path d="M307.842 266.561H297.292V277.111H307.842V266.561Z" fill="white"/>
<path d="M113.219 276.805H102.668V287.355H113.219V276.805Z" fill="white"/>
<path d="M143.949 276.805H133.398V287.355H143.949V276.805Z" fill="white"/>
<path d="M154.192 276.805H143.642V287.355H154.192V276.805Z" fill="white"/>
<path d="M174.679 276.805H164.128V287.355H174.679V276.805Z" fill="white"/>
<path d="M184.922 276.805H174.372V287.355H184.922V276.805Z" fill="white"/>
<path d="M225.896 276.805H215.345V287.355H225.896V276.805Z" fill="white"/>
<path d="M236.139 276.805H225.588V287.355H236.139V276.805Z" fill="white"/>
<path d="M246.382 276.805H235.832V287.355H246.382V276.805Z" fill="white"/>
<path d="M266.869 276.805H256.318V287.355H266.869V276.805Z" fill="white"/>
<path d="M113.219 287.048H102.668V297.598H113.219V287.048Z" fill="white"/>
<path d="M123.462 287.048H112.912V297.598H123.462V287.048Z" fill="white"/>
<path d="M133.706 287.048H123.155V297.598H133.706V287.048Z" fill="white"/>
<path d="M143.949 287.048H133.398V297.598H143.949V287.048Z" fill="white"/>
<path d="M164.436 287.048H153.885V297.598H164.436V287.048Z" fill="white"/>
<path d="M184.922 287.048H174.372V297.598H184.922V287.048Z" fill="white"/>
<path d="M215.652 287.048H205.102V297.598H215.652V287.048Z" fill="white"/>
<path d="M225.896 287.048H215.345V297.598H225.896V287.048Z" fill="white"/>
<path d="M236.139 287.048H225.588V297.598H236.139V287.048Z" fill="white"/>
<path d="M246.382 287.048H235.832V297.598H246.382V287.048Z" fill="white"/>
<path d="M256.626 287.048H246.075V297.598H256.626V287.048Z" fill="white"/>
<path d="M266.869 287.048H256.318V297.598H266.869V287.048Z" fill="white"/>
<path d="M277.112 287.048H266.562V297.598H277.112V287.048Z" fill="white"/>
<path d="M287.356 287.048H276.805V297.598H287.356V287.048Z" fill="white"/>
<path d="M297.599 287.048H287.048V297.598H297.599V287.048Z" fill="white"/>
<path d="M307.842 287.048H297.292V297.598H307.842V287.048Z" fill="white"/>
<path d="M133.706 297.292H123.155V307.843H133.706V297.292Z" fill="white"/>
<path d="M154.192 297.292H143.642V307.843H154.192V297.292Z" fill="white"/>
<path d="M174.679 297.292H164.128V307.843H174.679V297.292Z" fill="white"/>
<path d="M205.409 297.292H194.858V307.843H205.409V297.292Z" fill="white"/>
<path d="M215.652 297.292H205.102V307.843H215.652V297.292Z" fill="white"/>
<path d="M225.896 297.292H215.345V307.843H225.896V297.292Z" fill="white"/>
<path d="M256.626 297.292H246.075V307.843H256.626V297.292Z" fill="white"/>
<path d="M277.112 297.292H266.562V307.843H277.112V297.292Z" fill="white"/>
<path d="M307.842 297.292H297.292V307.843H307.842V297.292Z" fill="white"/>
<path d="M123.462 307.534H112.912V318.085H123.462V307.534Z" fill="white"/>
<path d="M133.706 307.534H123.155V318.085H133.706V307.534Z" fill="white"/>
<path d="M143.949 307.534H133.398V318.085H143.949V307.534Z" fill="white"/>
<path d="M164.436 307.534H153.885V318.085H164.436V307.534Z" fill="white"/>
<path d="M174.679 307.534H164.128V318.085H174.679V307.534Z" fill="white"/>
<path d="M215.652 307.534H205.102V318.085H215.652V307.534Z" fill="white"/>
<path d="M225.896 307.534H215.345V318.085H225.896V307.534Z" fill="white"/>
<path d="M246.382 307.534H235.832V318.085H246.382V307.534Z" fill="white"/>
<path d="M277.112 307.534H266.562V318.085H277.112V307.534Z" fill="white"/>
<path d="M297.599 307.534H287.048V318.085H297.599V307.534Z" fill="white"/>
</mask>
<g mask="url(#mask0_3940_11438)">
<path d="M338.265 0.234375H0.234985V338.264H338.265V0.234375Z" fill="black"/>
</g>
<path d="M43.7692 92.425H69.8897C82.1817 92.425 92.425 82.1817 92.425 69.8897V43.7692C92.425 30.965 82.1817 20.7217 69.3775 20.7217H43.257C30.965 20.7217 20.7217 30.965 20.7217 43.257V69.3775C20.7217 82.1817 30.965 92.425 43.7692 92.425ZM82.1817 45.3057V67.841C82.1817 75.5235 75.5235 82.1817 67.841 82.1817H45.3057C37.111 82.1817 30.965 76.0357 30.965 67.841V45.3057C30.965 37.6232 37.6232 30.965 45.3057 30.965H67.841C76.0357 30.965 82.1817 37.111 82.1817 45.3057Z" fill="black"/>
<path d="M71.9384 49.9148V63.7433C71.9384 67.8407 67.841 71.938 63.2315 71.938H49.9152C44.7935 71.938 41.2084 68.3528 41.2084 63.2312V49.9148C41.2084 45.3053 45.3057 41.208 49.9152 41.208H63.7437C68.3532 41.208 71.9384 44.7932 71.9384 49.9148Z" fill="black"/>
<path d="M269.122 92.425H295.243C307.535 92.425 317.778 82.1817 317.778 69.8897V43.7692C317.778 30.965 307.535 20.7217 294.731 20.7217H268.61C256.318 20.7217 246.075 30.965 246.075 43.257V69.3775C246.075 82.1817 256.318 92.425 269.122 92.425ZM307.535 45.3057V67.841C307.535 75.5235 300.877 82.1817 293.194 82.1817H270.659C262.464 82.1817 256.318 76.0357 256.318 67.841V45.3057C256.318 37.6232 262.976 30.965 270.659 30.965H293.194C301.389 30.965 307.535 37.111 307.535 45.3057Z" fill="black"/>
<path d="M297.292 49.9148V63.7433C297.292 67.8407 293.194 71.938 288.585 71.938H275.268C270.147 71.938 266.562 68.3528 266.562 63.2312V49.9148C266.562 45.3053 270.659 41.208 275.268 41.208H289.097C293.706 41.208 297.292 44.7932 297.292 49.9148Z" fill="black"/>
<path d="M43.7692 317.779H69.8897C82.1817 317.779 92.425 307.535 92.425 295.243V269.123C92.425 256.319 82.1817 246.075 69.3775 246.075H43.257C30.965 246.075 20.7217 256.319 20.7217 268.611V294.731C20.7217 307.535 30.965 317.779 43.7692 317.779ZM82.1817 270.659V293.195C82.1817 300.877 75.5235 307.535 67.841 307.535H45.3057C37.111 307.535 30.965 301.389 30.965 293.195V270.659C30.965 262.977 37.6232 256.319 45.3057 256.319H67.841C76.0357 256.319 82.1817 262.465 82.1817 270.659Z" fill="black"/>
<path d="M71.9384 275.267V289.096C71.9384 293.193 67.841 297.291 63.2315 297.291H49.9152C44.7935 297.291 41.2084 293.705 41.2084 288.584V275.267C41.2084 270.658 45.3057 266.561 49.9152 266.561H63.7437C68.3532 266.561 71.9384 270.146 71.9384 275.267Z" fill="black"/>
</g>
<defs>
<clipPath id="clip0_3940_11438">
<rect width="338.03" height="338.03" fill="white" transform="translate(0.235016 0.235352)"/>
</clipPath>
</defs>
</svg>
