<svg width="140" height="12" viewBox="0 0 140 12" fill="none" xmlns="http://www.w3.org/2000/svg">
<g clip-path="url(#clip0_8501_795)">
<path d="M4.95318 4.11797L6.25218 1.50197C6.29 1.42626 6.34815 1.36259 6.42013 1.31808C6.49211 1.27357 6.57506 1.25 6.65968 1.25C6.74431 1.25 6.82726 1.27357 6.89924 1.31808C6.97122 1.36259 7.02937 1.42626 7.06718 1.50197L8.36618 4.11797L11.2702 4.53997C11.3539 4.55159 11.4328 4.58652 11.4976 4.64078C11.5625 4.69504 11.6108 4.76644 11.637 4.84683C11.6632 4.92723 11.6663 5.01338 11.6459 5.09545C11.6255 5.17752 11.5825 5.2522 11.5217 5.31097L9.42068 7.34597L9.91668 10.221C9.98018 10.59 9.59018 10.871 9.25668 10.697L6.65968 9.33897L4.06218 10.697C3.72918 10.8715 3.33918 10.59 3.40268 10.2205L3.89868 7.34547L1.79768 5.31047C1.73718 5.25166 1.69438 5.17705 1.67417 5.09513C1.65395 5.01321 1.65712 4.92725 1.68332 4.84704C1.70952 4.76683 1.75769 4.69558 1.82237 4.64139C1.88704 4.58719 1.96563 4.55223 2.04918 4.54047L4.95318 4.11797Z" fill="#FED101" stroke="#FED101" stroke-width="1.5" stroke-linecap="round" stroke-linejoin="round"/>
</g>
<g clip-path="url(#clip1_8501_795)">
<path d="M18.9532 4.11797L20.2522 1.50197C20.29 1.42626 20.3482 1.36259 20.4201 1.31808C20.4921 1.27357 20.5751 1.25 20.6597 1.25C20.7443 1.25 20.8273 1.27357 20.8992 1.31808C20.9712 1.36259 21.0294 1.42626 21.0672 1.50197L22.3662 4.11797L25.2702 4.53997C25.3539 4.55159 25.4328 4.58652 25.4976 4.64078C25.5625 4.69504 25.6108 4.76644 25.637 4.84683C25.6632 4.92723 25.6663 5.01338 25.6459 5.09545C25.6255 5.17752 25.5825 5.2522 25.5217 5.31097L23.4207 7.34597L23.9167 10.221C23.9802 10.59 23.5902 10.871 23.2567 10.697L20.6597 9.33897L18.0622 10.697C17.7292 10.8715 17.3392 10.59 17.4027 10.2205L17.8987 7.34547L15.7977 5.31047C15.7372 5.25166 15.6944 5.17705 15.6742 5.09513C15.6539 5.01321 15.6571 4.92725 15.6833 4.84704C15.7095 4.76683 15.7577 4.69558 15.8224 4.64139C15.887 4.58719 15.9656 4.55223 16.0492 4.54047L18.9532 4.11797Z" fill="#FED101" stroke="#FED101" stroke-width="1.5" stroke-linecap="round" stroke-linejoin="round"/>
</g>
<g clip-path="url(#clip2_8501_795)">
<path d="M32.9532 4.11797L34.2522 1.50197C34.29 1.42626 34.3482 1.36259 34.4201 1.31808C34.4921 1.27357 34.5751 1.25 34.6597 1.25C34.7443 1.25 34.8273 1.27357 34.8992 1.31808C34.9712 1.36259 35.0294 1.42626 35.0672 1.50197L36.3662 4.11797L39.2702 4.53997C39.3539 4.55159 39.4328 4.58652 39.4976 4.64078C39.5625 4.69504 39.6108 4.76644 39.637 4.84683C39.6632 4.92723 39.6663 5.01338 39.6459 5.09545C39.6255 5.17752 39.5825 5.2522 39.5217 5.31097L37.4207 7.34597L37.9167 10.221C37.9802 10.59 37.5902 10.871 37.2567 10.697L34.6597 9.33897L32.0622 10.697C31.7292 10.8715 31.3392 10.59 31.4027 10.2205L31.8987 7.34547L29.7977 5.31047C29.7372 5.25166 29.6944 5.17705 29.6742 5.09513C29.6539 5.01321 29.6571 4.92725 29.6833 4.84704C29.7095 4.76683 29.7577 4.69558 29.8224 4.64139C29.887 4.58719 29.9656 4.55223 30.0492 4.54047L32.9532 4.11797Z" fill="#FED101" stroke="#FED101" stroke-width="1.5" stroke-linecap="round" stroke-linejoin="round"/>
</g>
<g clip-path="url(#clip3_8501_795)">
<path d="M46.9532 4.11797L48.2522 1.50197C48.29 1.42626 48.3481 1.36259 48.4201 1.31808C48.4921 1.27357 48.5751 1.25 48.6597 1.25C48.7443 1.25 48.8273 1.27357 48.8992 1.31808C48.9712 1.36259 49.0294 1.42626 49.0672 1.50197L50.3662 4.11797L53.2702 4.53997C53.3539 4.55159 53.4328 4.58652 53.4976 4.64078C53.5625 4.69504 53.6108 4.76644 53.637 4.84683C53.6632 4.92723 53.6663 5.01338 53.6459 5.09545C53.6255 5.17752 53.5825 5.2522 53.5217 5.31097L51.4207 7.34597L51.9167 10.221C51.9802 10.59 51.5902 10.871 51.2567 10.697L48.6597 9.33897L46.0622 10.697C45.7292 10.8715 45.3392 10.59 45.4027 10.2205L45.8987 7.34547L43.7977 5.31047C43.7372 5.25166 43.6944 5.17705 43.6742 5.09513C43.6539 5.01321 43.6571 4.92725 43.6833 4.84704C43.7095 4.76683 43.7577 4.69558 43.8224 4.64139C43.887 4.58719 43.9656 4.55223 44.0492 4.54047L46.9532 4.11797Z" fill="#FED101" stroke="#FED101" stroke-width="1.5" stroke-linecap="round" stroke-linejoin="round"/>
</g>
<g clip-path="url(#clip4_8501_795)">
<path d="M60.9532 4.11797L62.2522 1.50197C62.29 1.42626 62.3481 1.36259 62.4201 1.31808C62.4921 1.27357 62.5751 1.25 62.6597 1.25C62.7443 1.25 62.8273 1.27357 62.8992 1.31808C62.9712 1.36259 63.0294 1.42626 63.0672 1.50197L64.3662 4.11797L67.2702 4.53997C67.3539 4.55159 67.4328 4.58652 67.4976 4.64078C67.5625 4.69504 67.6108 4.76644 67.637 4.84683C67.6632 4.92723 67.6663 5.01338 67.6459 5.09545C67.6255 5.17752 67.5825 5.2522 67.5217 5.31097L65.4207 7.34597L65.9167 10.221C65.9802 10.59 65.5902 10.871 65.2567 10.697L62.6597 9.33897L60.0622 10.697C59.7292 10.8715 59.3392 10.59 59.4027 10.2205L59.8987 7.34547L57.7977 5.31047C57.7372 5.25166 57.6944 5.17705 57.6742 5.09513C57.6539 5.01321 57.6571 4.92725 57.6833 4.84704C57.7095 4.76683 57.7577 4.69558 57.8224 4.64139C57.887 4.58719 57.9656 4.55223 58.0492 4.54047L60.9532 4.11797Z" fill="#FED101" stroke="#FED101" stroke-width="1.5" stroke-linecap="round" stroke-linejoin="round"/>
</g>
<defs>
<clipPath id="clip0_8501_795">
<rect width="12" height="12" fill="white" transform="translate(0.659683)"/>
</clipPath>
<clipPath id="clip1_8501_795">
<rect width="12" height="12" fill="white" transform="translate(14.6597)"/>
</clipPath>
<clipPath id="clip2_8501_795">
<rect width="12" height="12" fill="white" transform="translate(28.6597)"/>
</clipPath>
<clipPath id="clip3_8501_795">
<rect width="12" height="12" fill="white" transform="translate(42.6597)"/>
</clipPath>
<clipPath id="clip4_8501_795">
<rect width="12" height="12" fill="white" transform="translate(56.6597)"/>
</clipPath>
</defs>
</svg>
