<svg width="24" height="25" viewBox="0 0 24 25" fill="none" xmlns="http://www.w3.org/2000/svg">
<path d="M21.5078 9.9678L5.19137 0.641176C4.79169 0.413205 4.33916 0.294151 3.87904 0.295918C3.41891 0.297684 2.96732 0.420209 2.56939 0.651242C2.17147 0.882274 1.84117 1.21372 1.61152 1.61244C1.38187 2.01116 1.26091 2.46318 1.26073 2.9233V21.5765C1.26069 22.037 1.38161 22.4894 1.61137 22.8884C1.84114 23.2874 2.17169 23.619 2.56993 23.8501C2.96818 24.0812 3.42014 24.2037 3.88058 24.2052C4.34101 24.2067 4.79377 24.0872 5.19351 23.8587L21.5074 14.5316C21.9096 14.3017 22.244 13.9696 22.4765 13.5688C22.709 13.1681 22.8315 12.713 22.8315 12.2497C22.8315 11.7864 22.709 11.3313 22.4765 10.9306C22.244 10.5299 21.9101 10.1977 21.5078 9.9678ZM14.4373 7.76252L12.197 10.8836L6.83818 3.41901L14.4373 7.76252ZM3.7841 22.6017C3.63756 22.5885 3.49558 22.544 3.3678 22.471C3.21099 22.3797 3.08088 22.2488 2.99045 22.0915C2.90002 21.9342 2.85244 21.7559 2.85246 21.5744V2.9233C2.85189 2.66707 2.94685 2.41983 3.11881 2.22988C3.29077 2.03992 3.52737 1.92088 3.78239 1.89603L11.2158 12.2499L3.7841 22.6017ZM6.83818 21.0808L12.197 13.6162L14.4373 16.7369L6.83818 21.0808ZM20.7145 13.1478L15.8283 15.9419L13.1782 12.2499L15.8288 8.55796L20.7167 11.3533C20.875 11.4437 21.0066 11.5744 21.0981 11.7321C21.1896 11.8898 21.2378 12.0689 21.2378 12.2512C21.2378 12.4335 21.1896 12.6126 21.0981 12.7703C21.0066 12.928 20.875 13.0587 20.7167 13.1491L20.7145 13.1478Z" fill="#FDFDFD"/>
</svg>
